<svg xmlns="http://www.w3.org/2000/svg" viewBox="0 0 520 390" role="img" aria-labelledby="title desc">
  <title id="title">Flashlight ghost</title>
  <desc id="desc">Original friendly ghost caught in a flashlight beam.</desc>
  <defs>
    <radialGradient id="glow" cx=".34" cy=".55" r=".58">
      <stop offset="0" stop-color="#fef08a" stop-opacity=".95"/>
      <stop offset=".55" stop-color="#fde68a" stop-opacity=".35"/>
      <stop offset="1" stop-color="#0f172a" stop-opacity="0"/>
    </radialGradient>
  </defs>
  <rect width="520" height="390" rx="22" fill="#0f172a"/>
  <path d="M0 260 520 78v260L0 344z" fill="url(#glow)"/>
  <g transform="translate(74 258) rotate(-14)">
    <rect width="128" height="48" rx="22" fill="#16a34a" stroke="#d9f99d" stroke-width="8"/>
    <rect x="92" y="12" width="70" height="24" rx="12" fill="#facc15" stroke="#fef3c7" stroke-width="6"/>
  </g>
  <g transform="translate(256 80)">
    <path d="M82 0c52 0 82 40 82 96v96c0 17-17 27-31 16l-24-19-24 19c-11 9-26 9-37 0l-24-19-24 19c-14 11-31 1-31-16V96C0 40 30 0 82 0z" fill="#ddd6fe" stroke="#ffffff" stroke-width="9"/>
    <circle cx="55" cy="93" r="17" fill="#111827"/>
    <circle cx="111" cy="93" r="17" fill="#111827"/>
    <path d="M55 137c18 20 38 20 56 0" fill="none" stroke="#111827" stroke-width="10" stroke-linecap="round"/>
  </g>
  <path d="M76 76h62M106 45v62M410 52h42M431 31v42M194 44h42M215 23v42" stroke="#fef3c7" stroke-width="7" stroke-linecap="round" opacity=".85"/>
</svg>
