<svg xmlns="http://www.w3.org/2000/svg" viewBox="0 0 720 420" role="img" aria-labelledby="title desc">
  <title id="title">Friendly mansion hall</title>
  <desc id="desc">Original spooky-but-friendly mansion hallway with a flashlight glow.</desc>
  <defs>
    <radialGradient id="beam" cx=".32" cy=".58" r=".55">
      <stop offset="0" stop-color="#fef9c3" stop-opacity=".95"/>
      <stop offset=".48" stop-color="#fde68a" stop-opacity=".42"/>
      <stop offset="1" stop-color="#312e81" stop-opacity="0"/>
    </radialGradient>
    <linearGradient id="wall" x1="0" x2="0" y1="0" y2="1">
      <stop offset="0" stop-color="#312e81"/>
      <stop offset="1" stop-color="#111827"/>
    </linearGradient>
  </defs>
  <rect width="720" height="420" rx="24" fill="url(#wall)"/>
  <path d="M0 296h720v124H0z" fill="#1f2937"/>
  <path d="M0 296h720M80 420l78-124M222 420l42-124M498 420l-42-124M640 420l-78-124" stroke="#4c1d95" stroke-width="8"/>
  <path d="M0 64h720M0 128h720M0 192h720" stroke="#4c1d95" stroke-width="5" opacity=".55"/>
  <path d="M70 298 438 126 720 80v252L424 298z" fill="url(#beam)"/>
  <g transform="translate(474 118)">
    <rect width="130" height="180" rx="10" fill="#3f2b56" stroke="#a78bfa" stroke-width="8"/>
    <path d="M22 172V66c0-40 26-62 43-62s43 22 43 62v106z" fill="#1f2937" stroke="#a78bfa" stroke-width="6"/>
    <circle cx="96" cy="104" r="8" fill="#fde68a"/>
  </g>
  <g transform="translate(72 258) rotate(-11)">
    <rect width="106" height="44" rx="19" fill="#16a34a" stroke="#bbf7d0" stroke-width="7"/>
    <rect x="77" y="12" width="60" height="20" rx="10" fill="#facc15" stroke="#fef3c7" stroke-width="5"/>
  </g>
  <g transform="translate(250 116)">
    <path d="M65 0c42 0 65 32 65 74v58c0 16-15 25-28 15l-18-13-18 13c-9 7-21 7-30 0l-18-13-18 13c-13 10-28 1-28-15V74C0 32 23 0 65 0z" fill="#e9d5ff" stroke="#ffffff" stroke-width="8"/>
    <circle cx="43" cy="73" r="13" fill="#111827"/>
    <circle cx="89" cy="73" r="13" fill="#111827"/>
    <path d="M45 105c18 15 36 15 54 0" fill="none" stroke="#111827" stroke-width="8" stroke-linecap="round"/>
  </g>
  <g fill="#fef3c7" opacity=".75">
    <circle cx="132" cy="88" r="5"/>
    <circle cx="170" cy="150" r="4"/>
    <circle cx="626" cy="72" r="4"/>
    <circle cx="650" cy="204" r="5"/>
    <circle cx="384" cy="72" r="4"/>
  </g>
</svg>
