<svg xmlns="http://www.w3.org/2000/svg" viewBox="0 0 720 520" role="img" aria-labelledby="title desc">
  <title id="title">Five correct mansion selfie</title>
  <desc id="desc">A Luigi-style ghost hunt celebration for five correct answers.</desc>
  <rect width="720" height="520" fill="#312e81"/>
  <radialGradient id="flash" cx="30%" cy="45%" r="50%">
    <stop offset="0" stop-color="#fef9c3" stop-opacity="0.9"/>
    <stop offset="1" stop-color="#312e81" stop-opacity="0"/>
  </radialGradient>
  <rect width="720" height="520" fill="url(#flash)"/>
  <g transform="translate(90 96)">
    <rect x="112" y="94" width="148" height="168" rx="12" fill="#22c55e"/>
    <rect x="84" y="80" width="88" height="126" rx="10" fill="#1d4ed8"/>
    <rect x="200" y="80" width="88" height="126" rx="10" fill="#1d4ed8"/>
    <rect x="130" y="0" width="116" height="116" rx="14" fill="#fde68a"/>
    <rect x="122" y="120" width="132" height="138" rx="8" fill="#22c55e" stroke="#ecfdf5" stroke-width="6"/>
    <rect x="120" y="268" width="54" height="112" rx="8" fill="#1e3a8a"/>
    <rect x="204" y="268" width="54" height="112" rx="8" fill="#1e3a8a"/>
    <circle cx="165" cy="48" r="8" fill="#111827"/>
    <circle cx="211" cy="48" r="8" fill="#111827"/>
    <path d="M160 76 Q188 94 216 76" fill="none" stroke="#111827" stroke-width="8" stroke-linecap="round"/>
    <rect x="248" y="150" width="88" height="36" rx="8" fill="#64748b" stroke="#a78bfa" stroke-width="4"/>
    <circle cx="268" cy="168" r="6" fill="#fde68a"/>
  </g>
  <g transform="translate(346 254) rotate(-4)">
    <rect x="0" y="0" width="260" height="118" rx="14" fill="#111827" stroke="#22c55e" stroke-width="8"/>
    <text x="130" y="46" text-anchor="middle" font-family="Impact, Arial Black, sans-serif" font-size="34" fill="#ecfdf5">5 CORRECT</text>
    <text x="130" y="84" text-anchor="middle" font-family="Impact, Arial Black, sans-serif" font-size="26" fill="#4ade80">GHOST SNAP!</text>
  </g>
</svg>
