<?xml version="1.0" encoding="UTF-8" standalone="no"?>
<!-- Created with Inkscape (http://www.inkscape.org/) -->
<svg
   xmlns:dc="http://purl.org/dc/elements/1.1/"
   xmlns:cc="http://creativecommons.org/ns#"
   xmlns:rdf="http://www.w3.org/1999/02/22-rdf-syntax-ns#"
   xmlns:svg="http://www.w3.org/2000/svg"
   xmlns="http://www.w3.org/2000/svg"
   xmlns:xlink="http://www.w3.org/1999/xlink"
   xmlns:sodipodi="http://sodipodi.sourceforge.net/DTD/sodipodi-0.dtd"
   xmlns:inkscape="http://www.inkscape.org/namespaces/inkscape"
   width="925.29987"
   height="927.32007"
   id="svg2"
   sodipodi:version="0.32"
   inkscape:version="0.46"
   version="1.0"
   sodipodi:docname="Book-icon.svg"
   inkscape:output_extension="org.inkscape.output.svg.inkscape">
  <defs
     id="defs4">
    <inkscape:perspective
       sodipodi:type="inkscape:persp3d"
       inkscape:vp_x="0 : 323 : 1"
       inkscape:vp_y="0 : 1000 : 0"
       inkscape:vp_z="819.64905 : 323 : 1"
       inkscape:persp3d-origin="409.82452 : 215.33333 : 1"
       id="perspective8" />
    <linearGradient
       gradientTransform="matrix(0.57853,0.353675,-0.35104,0.582872,520.705,-207.504)"
       gradientUnits="userSpaceOnUse"
       y2="451.37543"
       x2="114.65734"
       y1="524.23254"
       x1="173.22878"
       id="linearGradient3087"
       xlink:href="#linearGradient3525"
       inkscape:collect="always" />
    <linearGradient
       y2="150.75945"
       x2="131.42856"
       y1="62.271225"
       x1="52.857136"
       gradientUnits="userSpaceOnUse"
       id="linearGradient3021"
       xlink:href="#linearGradient2951"
       inkscape:collect="always" />
    <linearGradient
       y2="125.82186"
       x2="171.42857"
       y1="122.6041"
       x1="27.14286"
       gradientUnits="userSpaceOnUse"
       id="linearGradient3019"
       xlink:href="#linearGradient2959"
       inkscape:collect="always" />
    <linearGradient
       y2="150.75945"
       x2="131.42856"
       y1="62.271225"
       x1="52.857136"
       gradientUnits="userSpaceOnUse"
       id="linearGradient2973"
       xlink:href="#linearGradient2951"
       inkscape:collect="always" />
    <linearGradient
       y2="125.82186"
       x2="171.42857"
       y1="122.6041"
       x1="27.14286"
       gradientUnits="userSpaceOnUse"
       id="linearGradient2971"
       xlink:href="#linearGradient2959"
       inkscape:collect="always" />
    <linearGradient
       y2="125.82186"
       x2="171.42857"
       y1="122.6041"
       x1="27.14286"
       gradientUnits="userSpaceOnUse"
       id="linearGradient2965"
       xlink:href="#linearGradient2959"
       inkscape:collect="always" />
    <linearGradient
       y2="150.75945"
       x2="131.42856"
       y1="62.271225"
       x1="52.857136"
       gradientUnits="userSpaceOnUse"
       id="linearGradient2949"
       xlink:href="#linearGradient2951"
       inkscape:collect="always" />
    <linearGradient
       y2="125.82186"
       x2="171.42857"
       y1="122.6041"
       x1="27.14286"
       gradientUnits="userSpaceOnUse"
       id="linearGradient2947"
       xlink:href="#linearGradient2917"
       inkscape:collect="always" />
    <linearGradient
       gradientUnits="userSpaceOnUse"
       y2="150.75945"
       x2="131.42856"
       y1="62.271225"
       x1="52.857136"
       id="linearGradient2931"
       xlink:href="#linearGradient2925"
       inkscape:collect="always" />
    <linearGradient
       gradientUnits="userSpaceOnUse"
       y2="125.82186"
       x2="171.42857"
       y1="122.6041"
       x1="27.14286"
       id="linearGradient2923"
       xlink:href="#linearGradient2917"
       inkscape:collect="always" />
    <linearGradient
       id="linearGradient1977">
      <stop
         id="stop1979"
         offset="0"
         style="stop-color: rgb(239, 239, 189); stop-opacity: 1;" />
      <stop
         id="stop1981"
         offset="1"
         style="stop-color: rgb(210, 197, 149); stop-opacity: 1;" />
    </linearGradient>
    <linearGradient
       id="linearGradient2917">
      <stop
         id="stop2919"
         offset="0"
         style="stop-color: rgb(212, 0, 0); stop-opacity: 1;" />
      <stop
         id="stop2921"
         offset="1"
         style="stop-color: rgb(87, 0, 0); stop-opacity: 1;" />
    </linearGradient>
    <linearGradient
       id="linearGradient2925">
      <stop
         id="stop2927"
         offset="0"
         style="stop-color: rgb(250, 47, 82); stop-opacity: 1;" />
      <stop
         id="stop2929"
         offset="1"
         style="stop-color: rgb(245, 125, 90); stop-opacity: 1;" />
    </linearGradient>
    <linearGradient
       id="linearGradient2951">
      <stop
         style="stop-color: rgb(74, 175, 255); stop-opacity: 1;"
         offset="0"
         id="stop2953" />
      <stop
         style="stop-color: rgb(127, 229, 229); stop-opacity: 1;"
         offset="1"
         id="stop2955" />
    </linearGradient>
    <linearGradient
       id="linearGradient2959">
      <stop
         style="stop-color: rgb(85, 0, 175); stop-opacity: 1;"
         offset="0"
         id="stop2961" />
      <stop
         style="stop-color: rgb(0, 0, 82); stop-opacity: 1;"
         offset="1"
         id="stop2963" />
    </linearGradient>
    <linearGradient
       id="linearGradient3025">
      <stop
         id="stop3027"
         offset="0"
         style="stop-color: rgb(74, 175, 109); stop-opacity: 1;" />
      <stop
         id="stop3029"
         offset="1"
         style="stop-color: rgb(106, 242, 151); stop-opacity: 1;" />
    </linearGradient>
    <linearGradient
       id="linearGradient3033">
      <stop
         id="stop3035"
         offset="0"
         style="stop-color: rgb(85, 117, 103); stop-opacity: 1;" />
      <stop
         id="stop3037"
         offset="1"
         style="stop-color: rgb(0, 45, 23); stop-opacity: 1;" />
    </linearGradient>
    <linearGradient
       id="linearGradient3446">
      <stop
         id="stop3448"
         offset="0"
         style="stop-color: rgb(244, 227, 202); stop-opacity: 1;" />
      <stop
         id="stop3450"
         offset="1"
         style="stop-color: rgb(233, 204, 157); stop-opacity: 1;" />
    </linearGradient>
    <linearGradient
       id="linearGradient3525">
      <stop
         id="stop3527"
         offset="0"
         style="stop-color: rgb(0, 0, 102); stop-opacity: 1;" />
      <stop
         id="stop3529"
         offset="1"
         style="stop-color: rgb(0, 0, 79); stop-opacity: 1;" />
    </linearGradient>
    <inkscape:perspective
       id="perspective2613"
       inkscape:persp3d-origin="195.5 : 157.95238 : 1"
       inkscape:vp_z="391 : 236.92857 : 1"
       inkscape:vp_y="0 : 1000 : 0"
       inkscape:vp_x="0 : 236.92857 : 1"
       sodipodi:type="inkscape:persp3d" />
  </defs>
  <sodipodi:namedview
     id="base"
     pagecolor="#ffffff"
     bordercolor="#666666"
     borderopacity="1.0"
     inkscape:pageopacity="0.0"
     inkscape:pageshadow="2"
     inkscape:zoom="0.24748738"
     inkscape:cx="1425.7741"
     inkscape:cy="52.075831"
     inkscape:document-units="px"
     inkscape:current-layer="layer1"
     showgrid="false"
     showguides="true"
     inkscape:guide-bbox="true"
     inkscape:window-width="1024"
     inkscape:window-height="719"
     inkscape:window-x="0"
     inkscape:window-y="22" />
  <metadata
     id="metadata7">
    <rdf:RDF>
      <cc:Work
         rdf:about="">
        <dc:format>image/svg+xml</dc:format>
        <dc:type
           rdf:resource="http://purl.org/dc/dcmitype/StillImage" />
      </cc:Work>
    </rdf:RDF>
  </metadata>
  <g
     inkscape:label="Capa 1"
     inkscape:groupmode="layer"
     id="layer1"
     transform="translate(-972.98359,-178.07811)">
    <path
       style="fill:#003366"
       d="M 1214.3732,850.61038 C 1213.9024,849.37288 1210.8133,842.28538 1207.5085,834.86038 C 1204.2038,827.43539 1196.2164,809.21038 1189.7587,794.36038 C 1183.301,779.51038 1174.0909,758.36038 1169.2917,747.36038 C 1122.0085,638.98496 1106.6593,603.76739 1071.0097,521.86039 C 1059.1602,494.63538 1041.9542,455.26038 1032.7743,434.36039 C 1023.5943,413.46039 1015.862,395.41149 1015.5915,394.25173 C 1014.9778,391.62141 1014.8264,391.67865 1033.6012,387.44505 C 1182.4908,353.87133 1308.8136,358.08935 1391.2787,399.38819 C 1404.3161,405.91739 1419.1861,415.20614 1425.5601,420.80266 C 1427.6083,422.60096 1429.8801,423.84357 1430.6086,423.56403 C 1431.337,423.28449 1433.6672,419.07431 1435.7868,414.20809 C 1441.8706,400.24033 1458.2633,368.58927 1466.783,354.36039 C 1493.4415,309.83754 1523.7205,274.24653 1555.7787,249.75153 C 1578.8344,232.13514 1606.9904,218.14534 1632.7787,211.49283 C 1640.7134,209.44592 1660.7731,206.86039 1668.7191,206.86039 C 1677.2477,206.86039 1678.6705,208.21995 1680.2314,217.86039 C 1682.6727,232.93947 1688.3268,255.32819 1696.8992,283.86039 C 1703.9874,307.45254 1724.7911,367.50631 1736.564,398.36039 C 1749.0838,431.17161 1752.6124,440.23701 1762.4485,464.86039 C 1773.0288,491.34662 1775.4399,497.24714 1787.7834,526.86039 C 1790.8783,534.28538 1795.8778,545.08538 1798.8934,550.86038 C 1815.5774,582.81153 1830.8183,617.90949 1833.7701,631.17735 C 1836.1498,641.87347 1835.5874,643.47598 1829.0273,644.69233 C 1760.2151,657.45138 1707.2815,672.31537 1628.2787,701.06354 C 1606.8968,708.84413 1579.1243,719.80573 1577.5309,721.09326 C 1576.5727,721.86758 1576.9883,722.90459 1579.3223,725.56287 C 1585.3247,732.39918 1580.192,737.72688 1559.2636,746.38401 C 1512.5867,765.69201 1486.2787,767.71501 1486.2787,751.99632 C 1486.2787,749.78647 1485.8777,747.73057 1485.3875,747.42766 C 1483.1167,746.02423 1431.6444,762.30883 1394.7787,776.0941 C 1345.598,794.48433 1303.2081,812.53332 1242.9167,840.75479 C 1228.6926,847.41286 1216.6439,852.86038 1216.1419,852.86038 C 1215.6399,852.86038 1214.844,851.84788 1214.3732,850.61038 z M 1226.3056,824.70341 C 1235.6081,817.63787 1259.1177,802.48241 1273.2787,794.42222 C 1318.7509,768.54021 1367.4195,749.84703 1414.0207,740.36446 C 1444.4643,734.16969 1452.2432,733.44984 1489.7949,733.35246 L 1523.8111,733.26426 L 1529.7949,728.3812 L 1535.7787,723.49816 L 1536.0951,726.17927 C 1536.2691,727.65389 1536.6823,728.86038 1537.0134,728.86038 C 1537.3444,728.86038 1545.077,723.96558 1554.1969,717.98305 C 1614.4224,678.47623 1680.4669,650.45229 1739.2787,639.44942 C 1760.1135,635.5515 1768.0623,634.72273 1791.4272,634.01226 C 1810.7484,633.42476 1813.3017,633.14953 1815.1772,631.45219 C 1819.5195,627.5225 1824.3245,640.57843 1750.7199,456.31077 C 1734.0122,414.48348 1719.2289,377.80848 1717.8681,374.81077 C 1710.3702,358.29388 1719.3261,383.96087 1745.2763,453.36039 C 1751.4129,469.7715 1761.2649,496.49744 1765.65,508.62852 C 1766.3919,510.68105 1769.1361,517.98539 1771.7481,524.86039 C 1774.3602,531.73539 1776.8837,538.71039 1777.3558,540.36038 C 1778.1516,543.14137 1778.1071,543.21867 1776.7464,541.41926 C 1775.9392,540.35163 1775.2787,539.11601 1775.2787,538.67341 C 1775.2787,538.23083 1770.5091,525.82933 1764.6797,511.11455 C 1758.8503,496.39975 1751.6996,478.28538 1748.7894,470.86039 C 1711.7712,376.41497 1676.2049,290.60076 1674.7025,292.10326 C 1674.2632,292.54257 1678.8436,304.64088 1695.0548,345.86039 C 1701.6523,362.63538 1714.1102,394.36039 1722.739,416.36039 C 1731.3679,438.36039 1740.4664,461.53539 1742.9579,467.86039 C 1770.2549,537.1551 1794.2787,600.94783 1794.2787,604.13739 C 1794.2787,606.53766 1794.0935,606.58686 1780.5287,607.79031 C 1731.2477,612.16247 1671.7377,628.59027 1630.5617,649.18886 C 1602.2236,663.36518 1581.0256,677.41335 1560.2679,695.77323 C 1554.6031,700.78373 1549.7799,704.69491 1549.5497,704.46475 C 1547.8192,702.73427 1560.7733,686.46987 1573.9679,673.80659 C 1601.5189,647.36507 1636.8418,627.95649 1680.1962,615.43816 C 1695.6217,610.98413 1703.7545,609.17474 1725.2787,605.4082 C 1734.632,603.77145 1752.5055,601.8512 1768.6227,600.75149 C 1781.204,599.89305 1786.6106,599.15899 1786.9546,598.26252 C 1787.5249,596.77625 1785.9009,592.64398 1755.9462,519.36039 C 1746.9505,497.35272 1736.9529,472.85501 1727.9322,450.71602 C 1723.754,440.46162 1718.1447,426.96162 1715.4671,420.71602 C 1712.7895,414.47043 1709.6414,407.11039 1708.4713,404.36039 C 1704.4558,394.92286 1706.3236,401.36757 1711.6593,415.36039 C 1722.7504,444.4465 1738.5017,485.45079 1750.265,515.86039 C 1765.8319,556.10267 1776.2787,584.42446 1776.2787,586.38518 C 1776.2787,588.31012 1777.5298,588.00834 1753.7787,591.81211 C 1721.3064,597.01257 1683.9874,607.09714 1654.7787,618.56453 C 1597.9852,640.86169 1557.804,671.62854 1533.764,711.22574 C 1531.2147,715.42479 1528.7449,718.86038 1528.2756,718.86038 C 1527.8063,718.86038 1526.5295,716.49788 1525.4382,713.61038 C 1524.3469,710.72288 1517.7359,693.96038 1510.747,676.36038 C 1498.2635,644.92323 1494.5133,635.32811 1483.7787,607.36038 C 1480.8233,599.66038 1475.8711,586.83538 1472.7737,578.86038 C 1469.6763,570.88538 1463.9875,555.81039 1460.1319,545.36038 C 1456.2764,534.91039 1452.7071,525.93289 1452.2002,525.41039 C 1450.5829,523.74318 1451.1769,530.37906 1453.6947,542.1067 C 1456.1368,553.48171 1457.8864,559.0109 1467.065,584.36038 C 1469.8531,592.06039 1474.678,605.78538 1477.787,614.86038 C 1484.2682,633.77819 1489.793,649.74297 1501.2096,682.54283 C 1508.6541,703.93078 1510.0765,708.86038 1508.8033,708.86038 C 1508.5418,708.86038 1504.1501,706.62814 1499.044,703.89986 C 1456.7693,681.31193 1393.258,673.51183 1327.3799,682.81703 C 1303.3491,686.21135 1270.5233,693.41447 1250.6214,699.66054 C 1247.2348,700.72338 1244.0105,701.31267 1243.4562,700.97009 C 1242.9018,700.62749 1238.872,692.47517 1234.5011,682.85379 C 1185.9435,575.96954 1138.1615,475.62579 1121.178,444.87147 C 1110.1679,424.93385 1115.9921,439.30633 1136.6242,482.98807 C 1169.2843,552.13522 1178.1212,571.21528 1197.4689,614.36038 C 1212.1485,647.09562 1228.0101,685.00189 1233.809,701.20664 C 1235.3533,705.52208 1237.2471,709.29476 1238.0175,709.59038 C 1238.7878,709.886 1243.3242,708.95737 1248.0984,707.52677 C 1267.9834,701.56812 1300.4339,694.49896 1319.7787,691.91162 C 1362.0121,686.26299 1405.4019,686.43094 1439.7846,692.37613 C 1461.7289,696.17056 1490.0336,704.43876 1488.0092,706.46319 C 1487.7588,706.71362 1479.7294,705.81561 1470.1663,704.4676 C 1439.135,700.09352 1428.2857,699.3678 1395.7787,699.49183 C 1370.558,699.58807 1361.5161,700.01432 1347.2787,701.7782 C 1303.7547,707.17038 1267.3424,718.31341 1239.3901,734.79466 C 1233.1783,738.4573 1230.6541,738.67079 1229.7454,735.61038 C 1228.5891,731.71633 1199.6527,661.86596 1184.073,625.36038 C 1164.6412,579.82898 1148.8957,544.23231 1136.3013,517.36039 C 1133.4658,511.31039 1128.8387,501.41039 1126.0188,495.36039 C 1111.6959,464.63055 1087.0838,418.72191 1085.6831,420.12264 C 1085.0927,420.71306 1088.914,429.52127 1107.0444,469.36039 C 1159.3311,584.2537 1207.955,694.75932 1221.6677,729.86038 C 1224.7833,737.83538 1228.0055,745.85963 1228.8283,747.69206 L 1230.3242,751.02373 L 1234.5653,748.5383 C 1244.5383,742.69373 1265.6962,732.80429 1277.2787,728.57359 C 1305.2469,718.35769 1329.8956,712.625 1362.7787,708.68833 C 1379.6581,706.66758 1431.8975,706.99835 1450.7787,709.24553 C 1467.3233,711.21463 1492.3817,715.56669 1493.479,716.66158 C 1493.8642,717.04593 1477.8892,717.36038 1457.979,717.36038 C 1419.6259,717.36038 1406.7162,718.19642 1378.7787,722.48944 C 1343.5873,727.89711 1314.4414,735.76785 1280.7787,748.95394 C 1265.4858,754.94433 1239.1941,767.36358 1231.4323,772.2634 C 1229.0666,773.75677 1226.4619,774.83952 1225.6439,774.6695 C 1224.7198,774.47743 1219.308,762.24299 1211.3521,742.36038 C 1204.3096,724.76038 1195.514,703.16038 1191.8063,694.36038 C 1188.0986,685.56039 1182.6932,672.73538 1179.7943,665.86038 C 1152.5877,601.33817 1117.5727,526.99172 1090.7846,476.86855 C 1081.1071,458.76101 1070.2821,440.66171 1070.28,442.58509 C 1070.2789,443.64373 1082.2278,469.29093 1102.7882,512.36039 C 1129.6567,568.64425 1169.761,656.51107 1186.935,696.72261 C 1204.4387,737.70602 1220.2517,780.10474 1220.294,786.1665 C 1220.3293,791.22511 1221.6127,791.21526 1230.3806,786.08909 C 1272.0683,761.716 1320.4528,742.83812 1364.2057,733.87532 C 1388.8456,728.82784 1422.2787,725.27545 1422.2787,727.70486 C 1422.2787,728.31944 1421.0412,729.11235 1419.5287,729.46689 C 1347.1374,746.43587 1274.9396,776.19308 1230.1475,807.52277 C 1225.9503,810.45847 1222.213,812.86038 1221.8424,812.86038 C 1221.098,812.86038 1219.8015,810.04742 1207.7852,782.36038 C 1176.5641,710.42326 1122.7257,589.53996 1109.5801,561.86038 C 1107.0986,556.63538 1103.3651,548.53539 1101.2833,543.86038 C 1099.2015,539.18539 1093.1235,526.36039 1087.7767,515.36039 C 1082.4298,504.36039 1076.4723,491.98539 1074.5376,487.86039 C 1068.508,475.00428 1069.9005,481.80775 1076.2955,496.44917 C 1079.6374,504.10035 1083.2187,512.16039 1084.254,514.36039 C 1085.2893,516.56039 1087.9112,522.41039 1090.0805,527.36039 C 1096.1484,541.207 1113.9785,581.35054 1118.2844,590.86038 C 1122.1848,599.47456 1136.1197,631.253 1161.4766,689.36038 C 1188.422,751.10763 1212.2253,808.43494 1216.2854,821.36038 C 1217.85,826.34123 1219.1282,828.86038 1220.0908,828.86038 C 1220.4987,828.86038 1223.2954,826.98974 1226.3056,824.70341 z M 1558.2063,705.99555 C 1560.0061,702.63261 1577.2378,687.31199 1589,678.61707 C 1630.8624,647.67114 1684.397,627.02543 1742.3773,619.46682 C 1753.0321,618.07781 1779.5652,616.13004 1795.2536,615.58524 C 1800.9511,615.38737 1801.8696,615.07626 1802.904,612.9936 L 1804.0795,610.62683 L 1805.6001,612.9936 C 1807.762,616.35861 1808.0196,618.97027 1806.2787,619.87222 C 1805.4537,620.29964 1798.0287,621.62896 1789.7787,622.82623 C 1716.436,633.47014 1635.6495,661.43013 1577.2787,696.37192 C 1569.3037,701.1459 1561.5107,705.71109 1559.961,706.51679 C 1557.2626,707.91972 1557.1883,707.89767 1558.2063,705.99555 z M 1450.0726,420.61039 C 1451.1384,417.72289 1452.5809,413.56039 1453.2783,411.36039 C 1461.0494,386.8447 1479.6183,349.82266 1494.6838,328.80764 C 1501.0434,319.93649 1513.8602,305.42013 1520.5433,299.51898 C 1523.9687,296.49438 1526.5113,293.75973 1526.1936,293.44196 C 1524.9732,292.22156 1515.3613,299.66193 1505.7037,309.30286 C 1489.577,325.40173 1477.1528,343.1456 1465.0137,367.41531 C 1457.9088,381.62004 1448.376,404.87493 1445.7102,414.5054 C 1442.726,425.28582 1446.4326,430.47292 1450.0726,420.61039 z M 1381.2787,415.22841 C 1381.2787,413.52679 1376.7534,407.61395 1373.4706,405.02627 C 1361.5759,395.65002 1329.4792,384.86085 1300.2787,380.42311 C 1262.5385,374.68755 1209.9119,374.12883 1164.5287,378.98188 C 1158.3412,379.64354 1153.2787,380.52657 1153.2787,380.94419 C 1153.2787,381.36179 1165.9912,381.45779 1181.5287,381.15751 C 1233.9098,380.14521 1284.6666,384.29489 1320.2787,392.50121 C 1340.9883,397.27346 1364.463,406.20541 1374.6682,413.19603 C 1378.3518,415.71932 1381.2787,416.61917 1381.2787,415.22841 z M 1713.3314,363.49908 C 1711.9309,359.81541 1711.1459,360.18111 1712.4463,363.91143 C 1713.0313,365.5895 1713.6955,366.77691 1713.9223,366.55012 C 1714.1491,366.32333 1713.8832,364.95036 1713.3314,363.49908 z"
       id="path2989" />
    <text
       xml:space="preserve"
       style="font-size:40px;font-style:normal;font-weight:normal;fill:#000000;fill-opacity:1;stroke:none;stroke-width:1px;stroke-linecap:butt;stroke-linejoin:miter;stroke-opacity:1;font-family:Bitstream Vera Sans"
       x="52.527931"
       y="710.64978"
       id="text2381"
       transform="translate(1015.41,206.86)"><tspan
         sodipodi:role="line"
         id="tspan2383"
         x="52.527931"
         y="710.64978" /></text>
    <g
       id="g2767"
       transform="matrix(1.7354932,0,0,1.7354932,844.47568,398.27274)">
      <path
         id="flowRoot1960"
         d="M 173.80136,335.84124 L 164.73094,298.93675 C 163.86982,295.54737 163.31488,293.69318 163.06612,293.37413 C 162.81735,293.05518 161.77444,292.89567 159.9374,292.89562 L 159.33462,292.8358 L 159.33462,291.01152 L 174.54766,291.01152 L 174.54766,292.8358 L 174.00228,292.8358 C 172.14609,292.83586 170.96923,292.93554 170.47171,293.1349 C 169.97417,293.33432 169.7254,293.79286 169.72541,294.51059 C 169.7254,295.16855 170.00287,296.64392 170.55782,298.93675 L 176.84396,324.68618 L 186.63198,291.54984 L 188.64125,291.54984 L 198.42926,325.61327 L 205.77744,298.96661 C 206.60024,295.93615 207.01166,294.24145 207.01171,293.88254 C 207.01166,293.18477 205.51906,292.83586 202.53391,292.8358 L 202.01724,292.8358 L 202.01724,291.01152 L 213.6997,291.01152 L 213.6997,292.8358 L 213.18304,292.89562 C 211.13544,293.01531 210.00164,293.20472 209.78163,293.46386 C 209.56151,293.72309 208.95395,295.54737 207.95893,298.93675 L 197.56814,335.84124 L 195.64498,335.84124 L 185.62734,301.77786 L 175.78192,335.84124 L 173.80136,335.84124 z M 225.78402,302.79463 L 225.78402,327.52728 C 225.78401,330.2388 225.9945,331.85372 226.41551,332.37213 C 226.83648,332.8905 228.22384,333.22946 230.57757,333.38896 L 231.12294,333.41881 L 231.12294,335.27306 L 214.81915,335.27306 L 214.81915,333.41881 L 215.36453,333.38896 C 217.67996,333.22946 219.05297,332.88549 219.48353,332.35718 C 219.91408,331.82881 220.12936,330.21884 220.12936,327.52728 L 220.12936,310.54041 C 220.12936,307.84885 219.91408,306.24389 219.48353,305.72547 C 219.05297,305.20716 217.67996,304.85825 215.36453,304.67879 L 214.81915,304.64888 L 214.81915,302.79463 L 225.78402,302.79463 z M 220.12936,296.9031 L 220.12936,291.01152 L 225.78402,291.01152 L 225.78402,296.9031 L 220.12936,296.9031 z M 243.81004,319.30301 L 243.81004,327.52728 C 243.81003,330.19894 244.00617,331.8089 244.39847,332.35718 C 244.79074,332.90545 245.95325,333.24936 247.88599,333.38896 L 248.43136,333.41881 L 248.43136,335.27306 L 232.84517,335.27306 L 232.84517,333.41881 L 233.39055,333.38896 C 235.70598,333.22946 237.07898,332.88549 237.50955,332.35718 C 237.9401,331.82881 238.15537,330.21884 238.15538,327.52728 L 238.15538,295.79655 C 238.15537,293.10504 237.9401,291.49508 237.50955,290.96666 C 237.07898,290.43834 235.70598,290.09443 233.39055,289.93488 L 232.84517,289.90497 L 232.84517,288.05078 L 243.81004,288.05078 L 243.81004,317.83759 L 245.15912,317.83759 L 252.39249,310.60023 C 255.49248,307.31058 257.04249,305.54606 257.04252,305.30679 C 257.04249,304.92802 256.51625,304.72365 255.4638,304.69369 C 254.41131,304.66383 253.68414,304.64888 253.28231,304.64888 L 252.67953,304.64888 L 252.67953,302.79463 L 264.82126,302.79463 L 264.82126,304.64888 L 264.27588,304.67879 C 262.24745,304.81833 260.95099,305.07256 260.38651,305.44138 C 259.82198,305.81025 258.02799,307.5498 255.00454,310.66005 L 249.55081,316.25253 L 258.90826,327.70669 C 261.28109,330.49798 262.7689,332.1179 263.37171,332.56649 C 263.97446,333.01509 265.02215,333.28922 266.51478,333.38896 L 267.06015,333.41881 L 267.06015,335.27306 L 258.30548,335.27306 L 245.15912,319.30301 L 243.81004,319.30301 z M 287.72693,335.0936 C 286.29172,335.71165 284.9235,336.0207 283.62228,336.0207 C 280.31175,336.0207 277.89585,335.15342 276.37456,333.41881 C 274.85324,331.68426 274.09259,328.92293 274.0926,325.13477 L 274.0926,305.21706 L 269.49998,305.21706 L 269.49998,302.79463 L 274.0926,302.79463 L 274.0926,296.9031 L 279.77596,295.43769 L 279.77596,302.79463 L 288.44452,302.79463 L 288.44452,305.21706 L 279.77596,305.21706 L 279.77596,325.91232 C 279.77595,328.70361 280.12996,330.68739 280.838,331.86372 C 281.54602,333.04004 282.75158,333.62818 284.45469,333.62818 C 285.35406,333.62818 286.4448,333.31913 287.72693,332.70109 L 287.72693,335.0936 z M 302.13626,302.79463 L 302.13626,327.52728 C 302.13625,330.2388 302.34674,331.85372 302.76774,332.37213 C 303.18872,332.8905 304.57607,333.22946 306.9298,333.38896 L 307.47517,333.41881 L 307.47517,335.27306 L 291.17139,335.27306 L 291.17139,333.41881 L 291.71676,333.38896 C 294.0322,333.22946 295.4052,332.88549 295.83576,332.35718 C 296.26631,331.82881 296.48159,330.21884 296.4816,327.52728 L 296.4816,310.54041 C 296.48159,307.84885 296.26631,306.24389 295.83576,305.72547 C 295.4052,305.20716 294.0322,304.85825 291.71676,304.67879 L 291.17139,304.64888 L 291.17139,302.79463 L 302.13626,302.79463 z M 296.4816,296.9031 L 296.4816,291.01152 L 302.13626,291.01152 L 302.13626,296.9031 L 296.4816,296.9031 z M 325.84563,336.0207 C 321.25301,336.0207 317.62676,334.50046 314.96688,331.45999 C 312.30699,328.41947 310.97704,324.27745 310.97704,319.03387 C 310.97704,313.7903 312.30699,309.65323 314.96688,306.62266 C 317.62676,303.59219 321.25301,302.07696 325.84563,302.07691 C 330.45737,302.07696 334.0884,303.59219 336.73875,306.62266 C 339.38904,309.65323 340.7142,313.7903 340.71423,319.03387 C 340.7142,324.27745 339.38425,328.41947 336.7244,331.45999 C 334.06448,334.50046 330.43823,336.0207 325.84563,336.0207 L 325.84563,336.0207 z M 325.84563,334.1665 C 328.39069,334.1665 330.50521,332.736 332.18919,329.87493 C 333.87312,327.01387 334.7151,323.40022 334.71512,319.03387 C 334.7151,314.70739 333.87312,311.10369 332.18919,308.22267 C 330.50521,305.3417 328.39069,303.90124 325.84563,303.90119 C 323.31968,303.90124 321.21474,305.3417 319.53079,308.22267 C 317.84682,311.10369 317.00484,314.70739 317.00485,319.03387 C 317.00484,323.40022 317.84204,327.01387 319.51644,329.87493 C 321.19081,332.736 323.30055,334.1665 325.84563,334.1665 L 325.84563,334.1665 z M 355.64023,308.89558 C 357.07541,306.62271 358.73066,304.91806 360.606,303.78155 C 362.48129,302.64514 364.57667,302.07696 366.89214,302.07691 C 369.57114,302.07696 371.67608,302.99405 373.20698,304.82828 C 374.71869,306.66257 375.47456,309.18468 375.47459,312.3946 L 375.47459,327.52728 C 375.60851,330.49798 375.82857,332.17272 376.13478,332.55154 C 376.44092,332.93036 377.8187,333.2095 380.26813,333.38896 L 380.7848,333.41881 L 380.7848,335.27306 L 364.50972,335.27306 L 364.50972,333.41881 L 365.02639,333.38896 C 367.47576,333.2095 368.85354,332.93036 369.15974,332.55154 C 369.46589,332.17272 369.68595,330.49798 369.81993,327.52728 L 369.81993,313.3217 C 369.81991,310.53046 369.47068,308.59154 368.77224,307.50494 C 368.07376,306.41834 366.82514,305.87507 365.02639,305.87502 C 363.7634,305.87507 362.34734,306.28875 360.77822,307.11611 C 359.20906,307.94358 357.4964,309.19468 355.64023,310.86941 L 355.64023,327.52728 C 355.64022,330.2388 355.85071,331.85372 356.27172,332.37213 C 356.69269,332.8905 358.08005,333.22946 360.43377,333.38896 L 360.97914,333.41881 L 360.97914,335.27306 L 344.67536,335.27306 L 344.67536,333.41881 L 345.22074,333.38896 C 347.53617,333.22946 348.90917,332.88549 349.33974,332.35718 C 349.77029,331.82881 349.98556,330.21884 349.98557,327.52728 L 349.98557,310.54041 C 349.98556,307.84885 349.77029,306.24389 349.33974,305.72547 C 348.90917,305.20716 347.53617,304.85825 345.22074,304.67879 L 344.67536,304.64888 L 344.67536,302.79463 L 355.64023,302.79463 L 355.64023,308.89558 z M 392.84042,308.89558 C 394.2756,306.62271 395.93085,304.91806 397.80619,303.78155 C 399.68148,302.64514 401.77686,302.07696 404.09233,302.07691 C 406.77132,302.07696 408.87627,302.99405 410.40717,304.82828 C 411.91888,306.66257 412.67474,309.18468 412.67478,312.3946 L 412.67478,327.52728 C 412.8087,330.49798 413.02876,332.17272 413.33496,332.55154 C 413.64111,332.93036 415.01889,333.2095 417.46832,333.38896 L 417.98499,333.41881 L 417.98499,335.27306 L 401.70991,335.27306 L 401.70991,333.41881 L 402.22657,333.38896 C 404.67594,333.2095 406.05373,332.93036 406.35993,332.55154 C 406.66608,332.17272 406.88614,330.49798 407.02012,327.52728 L 407.02012,313.3217 C 407.02009,310.53046 406.67086,308.59154 405.97243,307.50494 C 405.27394,306.41834 404.02533,305.87507 402.22657,305.87502 C 400.96359,305.87507 399.54753,306.28875 397.97841,307.11611 C 396.40925,307.94358 394.69659,309.19468 392.84042,310.86941 L 392.84042,327.52728 C 392.8404,330.2388 393.0509,331.85372 393.4719,332.37213 C 393.89288,332.8905 395.28023,333.22946 397.63396,333.38896 L 398.17933,333.41881 L 398.17933,335.27306 L 381.87555,335.27306 L 381.87555,333.41881 L 382.42092,333.38896 C 384.73636,333.22946 386.10936,332.88549 386.53992,332.35718 C 386.97047,331.82881 387.18575,330.21884 387.18576,327.52728 L 387.18576,310.54041 C 387.18575,307.84885 386.97047,306.24389 386.53992,305.72547 C 386.10936,305.20716 384.73636,304.85825 382.42092,304.67879 L 381.87555,304.64888 L 381.87555,302.79463 L 392.84042,302.79463 L 392.84042,308.89558 z M 440.11565,330.81698 C 436.74772,334.28614 433.41808,336.0207 430.12672,336.0207 C 427.48595,336.0207 425.28533,335.14842 423.52483,333.40386 C 421.76433,331.65935 420.88407,329.4712 420.88408,326.83941 C 420.88407,323.76903 422.03223,321.27684 424.32854,319.36283 C 426.95014,317.16968 431.38967,316.07313 437.64712,316.07313 L 438.82398,316.07313 L 438.82398,312.03574 C 438.82396,306.9118 436.95821,304.34983 433.22673,304.34978 C 431.48535,304.34983 429.94491,304.90806 428.60541,306.02457 C 427.82083,306.70243 427.3233,308.08813 427.11281,310.18154 L 427.08411,310.74978 L 423.23779,310.74978 L 423.23779,304.79837 C 427.21805,302.9841 430.91127,302.07696 434.31748,302.07691 C 441.09156,302.07696 444.47861,305.31679 444.47864,311.79651 L 444.47864,326.27118 C 444.47861,328.86311 444.69389,330.68739 445.12447,331.74408 C 445.555,332.80077 446.30609,333.32914 447.37773,333.32914 C 447.76042,333.32914 448.26752,333.23941 448.89903,333.05995 L 449.07125,335.27306 C 447.71257,335.77147 446.49745,336.0207 445.42587,336.0207 C 442.632,336.0207 440.86193,334.28614 440.11565,330.81698 L 440.11565,330.81698 z M 438.82398,330.15902 L 438.82398,317.92732 L 437.5036,317.92732 C 434.17394,317.92732 431.57146,318.6451 429.69616,320.08056 C 427.82083,321.51611 426.88317,323.48989 426.88318,326.00205 C 426.88317,327.8762 427.46682,329.43134 428.63411,330.66744 C 429.80139,331.90358 431.25572,332.52163 432.9971,332.52163 C 434.64277,332.52163 436.58506,331.73413 438.82398,330.15902 L 438.82398,330.15902 z M 461.95928,302.79463 L 461.95928,327.52728 C 461.95927,330.2388 462.16977,331.85372 462.59077,332.37213 C 463.01174,332.8905 464.3991,333.22946 466.75282,333.38896 L 467.2982,333.41881 L 467.2982,335.27306 L 450.99441,335.27306 L 450.99441,333.41881 L 451.53979,333.38896 C 453.85523,333.22946 455.22822,332.88549 455.65879,332.35718 C 456.08934,331.82881 456.30462,330.21884 456.30463,327.52728 L 456.30463,310.54041 C 456.30462,307.84885 456.08934,306.24389 455.65879,305.72547 C 455.22822,305.20716 453.85523,304.85825 451.53979,304.67879 L 450.99441,304.64888 L 450.99441,302.79463 L 461.95928,302.79463 z M 456.30463,296.9031 L 456.30463,291.01152 L 461.95928,291.01152 L 461.95928,296.9031 L 456.30463,296.9031 z M 479.9853,311.64696 L 479.9853,327.52728 C 479.98529,330.21884 480.21013,331.83381 480.65984,332.37213 C 481.10952,332.91045 482.48252,333.24936 484.77884,333.38896 L 486.01311,333.41881 L 486.01311,335.27306 L 469.02043,335.27306 L 469.02043,333.41881 L 469.5658,333.38896 C 471.88124,333.22946 473.25424,332.88549 473.6848,332.35718 C 474.11536,331.82881 474.33063,330.21884 474.33064,327.52728 L 474.33064,310.54041 C 474.33063,307.84885 474.11536,306.24389 473.6848,305.72547 C 473.25424,305.20716 471.88124,304.85825 469.5658,304.67879 L 469.02043,304.64888 L 469.02043,302.79463 L 479.9853,302.79463 L 479.9853,308.89558 C 482.56863,304.34983 485.94611,302.07696 490.11776,302.07691 C 490.69181,302.07696 491.33286,302.18659 492.04092,302.40586 L 492.04092,311.2881 L 488.85479,311.2881 L 488.82609,310.74978 C 488.61557,308.89558 488.42899,307.79403 488.26636,307.44512 C 488.10369,307.09621 487.66834,306.92175 486.96033,306.92175 C 484.1282,306.92175 481.80319,308.49686 479.9853,311.64696 L 479.9853,311.64696 z M 521.92162,333.80764 C 518.32405,335.28301 515.04224,336.0207 512.0762,336.0207 C 507.50271,336.0207 503.78556,334.41573 500.92475,331.20576 C 498.06393,327.99583 496.63353,323.82885 496.63353,318.70487 C 496.63353,313.84011 497.91563,309.85259 500.47985,306.7423 C 503.04404,303.63205 506.33542,302.07696 510.35397,302.07691 C 514.06631,302.07696 516.92234,303.38282 518.92207,305.99466 C 520.92174,308.60649 521.92159,312.33483 521.92162,317.17963 L 521.92162,317.74786 L 502.89097,317.74786 C 502.89096,322.79212 503.73772,326.60019 505.43126,329.17211 C 507.12477,331.74408 509.63636,333.03004 512.96602,333.03004 C 516.46787,333.03004 519.45307,332.2824 521.92162,330.78707 L 521.92162,333.80764 z M 503.00578,315.89367 L 515.92252,315.89367 L 515.95122,314.5778 C 515.9512,310.8096 515.48237,308.08813 514.54473,306.41334 C 513.60705,304.73861 512.07618,303.90124 509.95212,303.90119 C 507.82802,303.90124 506.13928,304.98784 504.88589,307.16098 C 503.63248,309.33422 503.00578,312.2451 503.00578,315.89367 L 503.00578,315.89367 z"
         style="fill:#000000;fill-opacity:1;font-family:Lucida Bright" />
      <path
         id="flowRoot1972"
         d="M 189.36206,380.37645 L 170.18753,380.37645 L 170.39939,379.12963 L 170.73486,379.10956 C 172.2062,379.00231 173.09784,378.77439 173.40978,378.42583 C 173.72169,378.07724 174.04245,376.99135 174.37202,375.1681 L 177.74434,355.82282 C 177.93267,354.71013 178.02683,353.75157 178.02683,352.94717 C 178.02683,352.5182 177.91796,352.25675 177.70019,352.16289 C 177.48245,352.06909 176.7497,351.97523 175.50201,351.88136 L 175.16654,351.84114 L 175.39609,350.61447 L 185.61896,350.61447 L 185.40709,351.84114 L 185.07162,351.88136 C 183.60028,351.98865 182.70864,352.2132 182.39674,352.55503 C 182.0848,352.89693 181.76994,353.98618 181.45212,355.82282 L 178.06215,375.1681 C 177.86204,376.36124 177.76199,377.19243 177.76199,377.66166 C 177.76199,378.10408 177.90618,378.37888 178.19458,378.48613 C 178.48296,378.59338 179.25099,378.64702 180.49868,378.64702 L 183.60616,378.64702 C 185.71312,378.64702 186.9402,378.50961 187.28746,378.23477 C 187.63468,377.95994 188.02017,376.82377 188.44394,374.82624 L 188.54988,374.42404 L 190.40376,374.42404 L 189.36206,380.37645 z M 208.28942,376.89749 C 204.76996,379.55194 201.66248,380.87917 198.96699,380.87917 C 197.17783,380.87917 195.75064,380.18875 194.68538,378.80788 C 193.62014,377.42705 193.08751,375.5703 193.08751,373.23759 C 193.08751,369.32297 194.28813,365.81052 196.68935,362.70026 C 199.09056,359.59 201.79784,358.03489 204.81115,358.03485 C 205.95292,358.03489 206.90046,358.42699 207.65379,359.21124 C 208.40712,359.99556 208.78378,360.99095 208.78378,362.1975 C 208.78378,364.9056 207.6891,367.12769 205.49975,368.86377 C 203.31037,370.59992 200.39123,371.5685 196.74232,371.76958 L 196.707,372.79517 C 196.707,374.72568 197.06013,376.17357 197.76636,377.13883 C 198.47262,378.10408 199.53198,378.58669 200.94447,378.58669 C 203.31037,378.58669 205.86463,377.42705 208.60723,375.10776 L 208.28942,376.89749 z M 196.81295,370.60325 C 199.48489,370.37536 201.58302,369.58772 203.10734,368.24038 C 204.63165,366.89308 205.39381,365.1536 205.39381,363.02201 C 205.39381,361.94951 205.1996,361.14515 204.81115,360.60886 C 204.42271,360.07264 203.84005,359.8045 203.06322,359.8045 C 201.50947,359.8045 200.14405,360.82003 198.96699,362.85106 C 197.7899,364.88212 197.07189,367.46619 196.81295,370.60325 L 196.81295,370.60325 z M 234.70298,380.37645 L 236.30967,371.20653 C 234.85009,374.12909 233.21982,376.47185 231.41892,378.23477 C 229.61799,379.99769 227.94066,380.87917 226.38693,380.87917 C 225.12746,380.87917 224.18285,380.45686 223.55313,379.61228 C 222.9234,378.76769 222.60851,377.50749 222.60851,375.83171 C 222.60851,371.47467 223.95628,367.42264 226.65177,363.67553 C 229.34727,359.9285 232.26054,358.055 235.39155,358.05496 C 236.03893,358.055 237.08063,358.21586 238.51668,358.53757 L 239.32886,353.83198 C 239.52894,352.73271 239.62901,351.77415 239.62901,350.95633 C 239.62901,350.52736 239.51719,350.26595 239.29354,350.17205 C 239.06989,350.07825 238.33423,349.98442 237.08653,349.89052 L 236.76872,349.87041 L 236.98062,348.62363 L 243.72525,348.62363 L 239.09933,375.1681 C 238.89922,376.26741 238.79915,377.22597 238.79918,378.04375 C 238.79915,378.47275 238.91097,378.73416 239.13465,378.82799 C 239.35827,378.92186 240.09394,379.01569 241.34166,379.10956 L 241.65947,379.12963 L 241.44761,380.37645 L 234.70298,380.37645 z M 236.83935,368.1901 L 238.11061,361.11158 C 236.7334,360.32064 235.29738,359.92517 233.80251,359.92513 C 232.04864,359.92517 230.61849,360.84351 229.51207,362.68015 C 228.62926,364.14143 227.87298,366.07863 227.24326,368.49177 C 226.6135,370.90489 226.29864,373.08343 226.29864,375.02732 C 226.29864,375.99257 226.43991,376.71652 226.72241,377.19913 C 227.0049,377.68177 227.42863,377.92308 227.99363,377.92308 C 230.24183,377.92308 233.19041,374.67876 236.83935,368.1901 L 236.83935,368.1901 z M 245.50849,380.37645 L 248.42176,363.74592 C 248.61009,362.63323 248.70426,361.6814 248.70426,360.89039 C 248.70426,360.46142 248.59539,360.2 248.37762,360.10614 C 248.15985,360.01231 247.42125,359.91175 246.16178,359.8045 L 245.84397,359.78439 L 246.05583,358.53757 L 252.81812,358.53757 L 249.90488,375.1681 C 249.71655,376.26741 249.62239,377.22597 249.62239,378.04375 C 249.62239,378.47275 249.73126,378.73416 249.94903,378.82799 C 250.16677,378.92186 250.90539,379.01569 252.16487,379.10956 L 252.48268,379.12963 L 252.27078,380.37645 L 245.50849,380.37645 z M 250.0108,354.57604 L 250.71706,350.61447 L 254.19532,350.61447 L 253.50672,354.57604 L 250.0108,354.57604 z M 268.70863,378.46605 C 266.14262,380.07481 263.62955,380.87917 261.16948,380.87917 C 259.33323,380.87917 257.89721,380.2055 256.86138,378.85816 C 255.82556,377.51086 255.30766,375.64402 255.30766,373.2577 C 255.30766,369.28944 256.52591,365.7636 258.96247,362.68015 C 261.399,359.59669 264.18279,358.055 267.3138,358.05496 C 268.02003,358.055 268.74099,358.13208 269.47669,358.28621 C 270.21233,358.44041 270.96271,358.67166 271.72785,358.97999 L 270.75675,364.48998 L 269.02644,364.48998 L 269.06176,364.12801 C 269.09705,363.79287 269.1618,363.35718 269.25597,362.82089 C 269.29128,362.5394 269.30894,362.29806 269.30894,362.09694 C 269.30894,361.306 269.00879,360.71614 268.40848,360.32733 C 267.80816,359.93855 266.9077,359.74416 265.7071,359.74416 C 263.80022,359.74416 262.20531,360.96078 260.9223,363.394 C 259.63926,365.82727 258.99776,368.85375 258.99779,372.47342 C 258.99776,374.51118 259.36855,376.04285 260.11012,377.06844 C 260.85167,378.09402 261.964,378.6068 263.44712,378.6068 C 264.73013,378.6068 266.58401,377.99683 269.00879,376.77685 L 268.70863,378.46605 z M 281.38572,380.13511 C 280.39699,380.63114 279.46708,380.87917 278.59605,380.87917 C 277.27773,380.87917 276.21542,380.43342 275.40915,379.54189 C 274.60285,378.65039 274.1997,377.48738 274.1997,376.0529 C 274.1997,375.47643 274.2703,374.78601 274.41156,373.98162 L 276.83044,360.16644 L 273.88188,360.16644 L 274.16438,358.53757 L 277.09531,358.53757 L 277.80154,354.57604 L 281.47401,353.44989 L 280.5912,358.53757 L 285.48195,358.53757 L 285.18179,360.16644 L 280.3087,360.16644 L 277.78388,374.54471 C 277.66618,375.28204 277.6073,375.97919 277.60733,376.63607 C 277.6073,377.42705 277.7721,378.02363 278.10169,378.42583 C 278.43126,378.82799 278.92562,379.02911 279.58481,379.02911 C 280.16156,379.02911 280.86191,378.84141 281.68587,378.46605 L 281.38572,380.13511 z M 286.47068,380.37645 L 289.38395,363.74592 C 289.57228,362.63323 289.66644,361.6814 289.66644,360.89039 C 289.66644,360.46142 289.55757,360.2 289.3398,360.10614 C 289.12203,360.01231 288.38344,359.91175 287.12396,359.8045 L 286.80615,359.78439 L 287.01801,358.53757 L 293.7803,358.53757 L 290.86707,375.1681 C 290.67873,376.26741 290.58457,377.22597 290.58457,378.04375 C 290.58457,378.47275 290.69344,378.73416 290.91121,378.82799 C 291.12895,378.92186 291.86758,379.01569 293.12705,379.10956 L 293.44486,379.12963 L 293.23297,380.37645 L 286.47068,380.37645 z M 290.97298,354.57604 L 291.67924,350.61447 L 295.15751,350.61447 L 294.46891,354.57604 L 290.97298,354.57604 z M 302.43182,380.87917 C 300.40724,380.87917 298.88883,380.24909 297.87654,378.98889 C 296.86425,377.72869 296.3581,375.8451 296.3581,373.33812 C 296.3581,369.30286 297.53519,365.74682 299.88934,362.67009 C 302.24349,359.59336 304.96839,358.055 308.06412,358.05496 C 310.13574,358.055 311.68654,358.68172 312.71649,359.93519 C 313.74641,361.1887 314.26138,363.06892 314.26141,365.5759 C 314.26138,369.638 313.07254,373.20406 310.69489,376.2741 C 308.31717,379.34413 305.56283,380.87917 302.43182,380.87917 L 302.43182,380.87917 z M 303.33229,379.35086 C 305.20382,379.35086 306.85171,377.93649 308.27598,375.10776 C 309.70022,372.27903 310.41236,369.02133 310.41239,365.33457 C 310.41236,363.41748 310.14164,361.97967 309.60018,361.02111 C 309.05872,360.06259 308.24067,359.58331 307.14599,359.58327 C 305.32152,359.58331 303.70304,361.03117 302.29055,363.92693 C 300.87807,366.82269 300.17184,370.14745 300.17184,373.90121 C 300.17184,375.50996 300.46609,376.82041 301.05465,377.83257 C 301.64318,378.84478 302.40238,379.35086 303.33229,379.35086 L 303.33229,379.35086 z M 317.19234,380.37645 L 320.10558,363.74592 C 320.29391,362.63323 320.38807,361.6814 320.38807,360.89039 C 320.38807,360.46142 320.2792,360.2 320.06143,360.10614 C 319.84369,360.01231 319.10507,359.91175 317.84559,359.8045 L 317.52778,359.78439 L 317.73967,358.53757 L 324.50196,358.53757 L 322.93055,367.46619 C 324.44899,364.57043 326.10275,362.27795 327.89194,360.58875 C 329.68106,358.89958 331.34664,358.055 332.88861,358.05496 C 333.91265,358.055 334.68068,358.36669 335.19274,358.99005 C 335.70473,359.61347 335.96074,360.55525 335.96077,361.81542 C 335.96074,362.43215 335.84894,363.38398 335.6253,364.67095 L 333.78908,375.1681 C 333.60071,376.26741 333.50655,377.22597 333.50658,378.04375 C 333.50655,378.47275 333.61542,378.73416 333.83322,378.82799 C 334.05096,378.92186 334.78956,379.01569 336.04906,379.10956 L 336.36687,379.12963 L 336.15498,380.37645 L 329.39269,380.37645 L 332.23532,364.1079 C 332.35302,363.39737 332.41187,362.83431 332.4119,362.4187 C 332.41187,361.94951 332.30888,361.60095 332.10292,361.37303 C 331.8969,361.14515 331.58791,361.03117 331.17596,361.03117 C 329.26908,361.03117 326.34994,364.18165 322.41853,370.48258 L 320.67057,380.37645 L 317.19234,380.37645 z M 340.00403,380.37645 L 342.9173,363.74592 C 343.1056,362.63323 343.19976,361.6814 343.19979,360.89039 C 343.19976,360.46142 343.09089,360.2 342.87315,360.10614 C 342.65538,360.01231 341.91676,359.91175 340.65731,359.8045 L 340.3395,359.78439 L 340.55137,358.53757 L 347.31365,358.53757 L 345.74227,367.46619 C 347.26068,364.57043 348.91448,362.27795 350.70363,360.58875 C 352.49275,358.89958 354.15833,358.055 355.7003,358.05496 C 356.72434,358.055 357.49238,358.36669 358.00443,358.99005 C 358.51645,359.61347 358.77246,360.55525 358.77246,361.81542 C 358.77246,362.43215 358.66064,363.38398 358.43702,364.67095 L 356.60077,375.1681 C 356.4124,376.26741 356.31824,377.22597 356.31827,378.04375 C 356.31824,378.47275 356.42714,378.73416 356.64491,378.82799 C 356.86265,378.92186 357.60128,379.01569 358.86075,379.10956 L 359.17856,379.12963 L 358.9667,380.37645 L 352.20441,380.37645 L 355.04704,364.1079 C 355.16471,363.39737 355.22356,362.83431 355.22359,362.4187 C 355.22356,361.94951 355.12057,361.60095 354.91461,361.37303 C 354.70862,361.14515 354.39963,361.03117 353.98765,361.03117 C 352.0808,361.03117 349.16166,364.18165 345.23022,370.48258 L 343.48229,380.37645 L 340.00403,380.37645 z M 374.045,380.37645 L 375.65173,371.20653 C 374.19214,374.12909 372.56188,376.47185 370.76097,378.23477 C 368.96004,379.99769 367.28271,380.87917 365.72899,380.87917 C 364.46951,380.87917 363.5249,380.45686 362.89518,379.61228 C 362.26543,378.76769 361.95057,377.50749 361.95057,375.83171 C 361.95057,371.47467 363.29833,367.42264 365.99383,363.67553 C 368.68932,359.9285 371.60256,358.055 374.7336,358.05496 C 375.06317,358.055 375.4869,358.09519 376.00483,358.17563 C 376.52272,358.25608 377.14069,358.37675 377.85873,358.53757 L 381.337,358.53757 L 378.44139,375.1681 C 378.24127,376.26741 378.1412,377.22597 378.14123,378.04375 C 378.1412,378.47275 378.25303,378.73416 378.4767,378.82799 C 378.70032,378.92186 379.43599,379.01569 380.68371,379.10956 L 381.00153,379.12963 L 380.78963,380.37645 L 374.045,380.37645 z M 376.18141,368.1901 L 377.43497,361.19203 C 376.75228,360.78986 376.05189,360.49159 375.33391,360.29716 C 374.61587,360.10278 373.87433,360.00558 373.10925,360.00558 C 371.34363,360.00558 369.91348,360.91053 368.8188,362.72034 C 367.94775,364.16823 367.20033,366.09874 366.57648,368.51185 C 365.9526,370.925 365.6407,373.09681 365.6407,375.02732 C 365.6407,375.99257 365.78193,376.71652 366.06446,377.19913 C 366.34693,377.68177 366.77069,377.92308 367.33568,377.92308 C 369.58388,377.92308 372.53247,374.67876 376.18141,368.1901 L 376.18141,368.1901 z M 384.85055,380.37645 L 387.76382,363.74592 C 387.95215,362.63323 388.04631,361.6814 388.04631,360.89039 C 388.04631,360.46142 387.93741,360.2 387.71967,360.10614 C 387.5019,360.01231 386.76331,359.91175 385.50383,359.8045 L 385.18602,359.78439 L 385.39789,358.53757 L 392.16018,358.53757 L 389.24694,375.1681 C 389.05858,376.26741 388.96441,377.22597 388.96444,378.04375 C 388.96441,378.47275 389.07331,378.73416 389.29105,378.82799 C 389.50882,378.92186 390.24742,379.01569 391.50692,379.10956 L 391.8247,379.12963 L 391.61284,380.37645 L 384.85055,380.37645 z M 389.35286,354.57604 L 390.05911,350.61447 L 393.53735,350.61447 L 392.84878,354.57604 L 389.35286,354.57604 z M 395.30297,380.37645 L 398.21624,363.74592 C 398.40457,362.64665 398.49873,361.69478 398.49873,360.89039 C 398.49873,360.46142 398.38983,360.2 398.17209,360.10614 C 397.95432,360.01231 397.21573,359.91175 395.95625,359.8045 L 395.63844,359.78439 L 395.8503,358.53757 L 402.61259,358.53757 L 401.04121,367.46619 C 404.44294,361.17864 407.70931,358.03489 410.84035,358.03485 C 411.14638,358.03489 411.43475,358.09519 411.7055,358.21582 L 410.22238,362.76056 C 409.6927,362.49245 409.15711,362.3584 408.61568,362.3584 C 406.37923,362.3584 403.70139,364.96593 400.58214,370.18094 L 398.78123,380.37645 L 395.30297,380.37645 z M 426.87209,376.89749 C 423.35263,379.55194 420.24516,380.87917 417.54966,380.87917 C 415.76051,380.87917 414.33332,380.18875 413.26808,378.80788 C 412.20281,377.42705 411.67018,375.5703 411.67018,373.23759 C 411.67018,369.32297 412.87081,365.81052 415.27202,362.70026 C 417.67327,359.59 420.38052,358.03489 423.39386,358.03485 C 424.5356,358.03489 425.48314,358.42699 426.23649,359.21124 C 426.98979,359.99556 427.36645,360.99095 427.36648,362.1975 C 427.36645,364.9056 426.27178,367.12769 424.08243,368.86377 C 421.89308,370.59992 418.97393,371.5685 415.325,371.76958 L 415.28968,372.79517 C 415.28968,374.72568 415.64281,376.17357 416.34907,377.13883 C 417.0553,378.10408 418.11466,378.58669 419.52715,378.58669 C 421.89308,378.58669 424.44731,377.42705 427.1899,375.10776 L 426.87209,376.89749 z M 415.39563,370.60325 C 418.06759,370.37536 420.1657,369.58772 421.69004,368.24038 C 423.21432,366.89308 423.97648,365.1536 423.97651,363.02201 C 423.97648,361.94951 423.78227,361.14515 423.39386,360.60886 C 423.00541,360.07264 422.42276,359.8045 421.6459,359.8045 C 420.09214,359.8045 418.72675,360.82003 417.54966,362.85106 C 416.3726,364.88212 415.65459,367.46619 415.39563,370.60325 L 415.39563,370.60325 z M 441.61495,380.37645 L 446.25852,353.83198 C 446.44682,352.73271 446.54099,351.77415 446.54102,350.95633 C 446.54099,350.52736 446.43212,350.26595 446.21438,350.17205 C 445.9966,350.07825 445.25798,349.98442 443.99854,349.89052 L 443.68073,349.87041 L 443.89259,348.62363 L 450.65488,348.62363 L 446.01134,375.1681 C 445.82298,376.26741 445.72881,377.22597 445.72884,378.04375 C 445.72881,378.47275 445.83771,378.73416 446.05545,378.82799 C 446.27323,378.92186 447.01182,379.01569 448.27132,379.10956 L 448.58911,379.12963 L 448.37724,380.37645 L 441.61495,380.37645 z M 452.50879,380.37645 L 455.42203,363.74592 C 455.61036,362.63323 455.70453,361.6814 455.70453,360.89039 C 455.70453,360.46142 455.59565,360.2 455.37788,360.10614 C 455.16014,360.01231 454.42152,359.91175 453.16204,359.8045 L 452.84423,359.78439 L 453.05613,358.53757 L 459.81842,358.53757 L 456.90515,375.1681 C 456.71682,376.26741 456.62265,377.22597 456.62265,378.04375 C 456.62265,378.47275 456.73152,378.73416 456.94929,378.82799 C 457.16704,378.92186 457.90566,379.01569 459.16513,379.10956 L 459.48294,379.12963 L 459.27108,380.37645 L 452.50879,380.37645 z M 457.0111,354.57604 L 457.71733,350.61447 L 461.19559,350.61447 L 460.50699,354.57604 L 457.0111,354.57604 z M 462.4315,380.87917 L 467.1457,353.83198 C 467.34579,352.71929 467.44583,351.76745 467.44586,350.97644 C 467.44583,350.53406 467.33403,350.26595 467.11039,350.17205 C 466.88674,350.07825 466.15107,349.98442 464.90338,349.89052 L 464.58556,349.87041 L 464.79743,348.62363 L 471.54206,348.62363 L 468.20506,367.7276 C 469.65287,364.80504 471.28014,362.45895 473.08698,360.68931 C 474.89377,358.91969 476.56817,358.03489 478.11014,358.03485 C 479.38137,358.03489 480.33186,358.45383 480.96161,359.29169 C 481.59133,360.12961 481.90619,361.39314 481.90622,363.08231 C 481.90619,367.42596 480.56138,371.478 477.87179,375.23849 C 475.18217,378.99894 472.27773,380.87917 469.1585,380.87917 C 468.40514,380.87917 467.68126,380.79539 466.98678,380.62781 C 466.2923,380.46022 465.62726,380.20886 464.99164,379.87369 L 462.4315,380.87917 z M 467.67538,370.74403 L 466.42178,377.72199 C 467.1398,378.12419 467.86371,378.42583 468.59351,378.62691 C 469.32327,378.82799 470.05894,378.92855 470.80052,378.92855 C 472.54257,378.92855 473.96093,378.01021 475.05564,376.17357 C 475.91489,374.75252 476.65351,372.8287 477.27148,370.40217 C 477.88942,367.97563 478.1984,365.7971 478.19843,363.86659 C 478.1984,362.90134 478.06009,362.18075 477.7835,361.70484 C 477.50688,361.22892 477.08607,360.99095 476.5211,360.99095 C 474.27287,360.99095 471.32429,364.24199 467.67538,370.74403 L 467.67538,370.74403 z M 484.50164,380.37645 L 487.41491,363.74592 C 487.60324,362.64665 487.69741,361.69478 487.69741,360.89039 C 487.69741,360.46142 487.58854,360.2 487.37077,360.10614 C 487.153,360.01231 486.4144,359.91175 485.15493,359.8045 L 484.83712,359.78439 L 485.04898,358.53757 L 491.81127,358.53757 L 490.23989,367.46619 C 493.64162,361.17864 496.90801,358.03489 500.03902,358.03485 C 500.34506,358.03489 500.63343,358.09519 500.90418,358.21582 L 499.42108,362.76056 C 498.89137,362.49245 498.35579,362.3584 497.81436,362.3584 C 495.57791,362.3584 492.90007,364.96593 489.78084,370.18094 L 487.97991,380.37645 L 484.50164,380.37645 z M 516.0708,376.89749 C 512.55131,379.55194 509.44384,380.87917 506.74837,380.87917 C 504.95919,380.87917 503.53199,380.18875 502.46676,378.80788 C 501.40149,377.42705 500.86886,375.5703 500.86886,373.23759 C 500.86886,369.32297 502.06948,365.81052 504.47073,362.70026 C 506.87195,359.59 509.57922,358.03489 512.59253,358.03485 C 513.73428,358.03489 514.68181,358.42699 515.43517,359.21124 C 516.18847,359.99556 516.56513,360.99095 516.56516,362.1975 C 516.56513,364.9056 515.47046,367.12769 513.2811,368.86377 C 511.09175,370.59992 508.17261,371.5685 504.52367,371.76958 L 504.48839,372.79517 C 504.48836,374.72568 504.84149,376.17357 505.54775,377.13883 C 506.25398,378.10408 507.31333,378.58669 508.72585,378.58669 C 511.09175,378.58669 513.64599,377.42705 516.38858,375.10776 L 516.0708,376.89749 z M 504.5943,370.60325 C 507.26627,370.37536 509.3644,369.58772 510.88872,368.24038 C 512.413,366.89308 513.17516,365.1536 513.17519,363.02201 C 513.17516,361.94951 512.98095,361.14515 512.59253,360.60886 C 512.20409,360.07264 511.62143,359.8045 510.84457,359.8045 C 509.29082,359.8045 507.92543,360.82003 506.74837,362.85106 C 505.57128,364.88212 504.85327,367.46619 504.5943,370.60325 L 504.5943,370.60325 z"
         style="font-style:italic;fill:#808080;fill-opacity:1;font-family:Lucida Bright" />
    </g>
  </g>
</svg>
