<svg xmlns="http://www.w3.org/2000/svg" viewBox="0 0 720 520" role="img" aria-labelledby="title desc">
  <title id="title">Story legend card</title>
  <desc id="desc">A rare glowing story legend collectible card.</desc>
  <rect width="720" height="520" fill="#233047"/>
  <rect x="52" y="36" width="616" height="448" rx="20" fill="#fde68a" stroke="#fffaf0" stroke-width="10"/>
  <rect x="86" y="72" width="548" height="376" rx="16" fill="#0f9f8f" stroke="#233047" stroke-width="10"/>
  <g transform="translate(300 126)">
    <path d="M-52 48 V-44 C-52 -58 -18 -58 0 -44 C18 -58 52 -58 52 -44 V48 C52 62 18 62 0 48 C-18 62 -52 62 -52 48 Z" fill="#fffaf0" stroke="#233047" stroke-width="8"/>
    <path d="M0 -44 V48" stroke="#233047" stroke-width="4"/>
    <path d="M-24 -4 L0 -28 L24 -4 L0 20 Z" fill="#b45309" stroke="#233047" stroke-width="4"/>
  </g>
  <g transform="translate(96 86)">
    <rect x="0" y="0" width="236" height="64" rx="12" fill="#233047"/>
    <text x="118" y="42" text-anchor="middle" font-family="Georgia, Times New Roman, serif" font-size="28" font-weight="bold" fill="#ffffff">LEGEND PULL</text>
  </g>
  <text x="360" y="430" text-anchor="middle" font-family="Georgia, Times New Roman, serif" font-size="36" font-weight="bold" fill="#ffffff">STORY LEGEND</text>
</svg>
