<svg xmlns="http://www.w3.org/2000/svg" viewBox="0 0 720 520" role="img" aria-labelledby="title desc">
  <title id="title">Helldiver legend card</title>
  <desc id="desc">A rare glowing helldiver legend collectible card.</desc>
  <rect width="720" height="520" fill="#0f172a"/>
  <rect x="52" y="36" width="616" height="448" rx="16" fill="#f97316" stroke="#f8fafc" stroke-width="10"/>
  <rect x="86" y="72" width="548" height="376" rx="12" fill="#1e3a8a" stroke="#111827" stroke-width="10"/>
  <g transform="translate(250 126)">
    <rect x="82" y="116" width="118" height="142" rx="8" fill="#334155" stroke="#f8fafc" stroke-width="6"/>
    <rect x="42" y="100" width="80" height="116" rx="8" fill="#475569"/>
    <rect x="160" y="100" width="80" height="116" rx="8" fill="#475569"/>
    <rect x="88" y="0" width="106" height="106" rx="8" fill="#64748b" stroke="#f97316" stroke-width="6"/>
    <rect x="76" y="132" width="132" height="130" rx="6" fill="#111827" stroke="#f97316" stroke-width="6"/>
    <rect x="70" y="274" width="52" height="96" rx="6" fill="#0f172a"/>
    <rect x="164" y="274" width="52" height="96" rx="6" fill="#0f172a"/>
    <circle cx="120" cy="42" r="8" fill="#f8fafc"/>
    <circle cx="162" cy="42" r="8" fill="#f8fafc"/>
  </g>
  <g transform="translate(96 86)">
    <rect x="0" y="0" width="236" height="64" rx="8" fill="#111827" stroke="#f97316" stroke-width="5"/>
    <text x="118" y="42" text-anchor="middle" font-family="Impact, Arial Black, sans-serif" font-size="28" fill="#f8fafc">LEGEND PULL</text>
  </g>
  <text x="360" y="430" text-anchor="middle" font-family="Impact, Arial Black, sans-serif" font-size="36" fill="#f8fafc">HELLDIVER LEGEND</text>
</svg>
