<svg xmlns="http://www.w3.org/2000/svg" viewBox="0 0 720 520" role="img" aria-labelledby="title desc">
  <title id="title">Stratagem crate</title>
  <desc id="desc">A tactical stratagem supply crate for Space Cadets session rewards.</desc>
  <rect width="720" height="520" fill="#0f172a"/>
  <rect x="0" y="360" width="720" height="160" fill="#1e293b"/>
  <g transform="translate(142 92)">
    <rect x="0" y="92" width="436" height="284" rx="12" fill="#334155" stroke="#f97316" stroke-width="12"/>
    <rect x="24" y="116" width="388" height="70" rx="6" fill="#111827" stroke="#f8fafc" stroke-width="6"/>
    <rect x="24" y="210" width="388" height="70" rx="6" fill="#1e3a8a" stroke="#f8fafc" stroke-width="6"/>
    <rect x="24" y="304" width="388" height="48" rx="6" fill="#7c2d12" stroke="#f8fafc" stroke-width="6"/>
    <path d="M56 92 L218 0 L380 92 Z" fill="#f97316" stroke="#f8fafc" stroke-width="10" stroke-linejoin="round"/>
    <g transform="translate(184 170)">
      <circle cx="34" cy="34" r="30" fill="none" stroke="#f97316" stroke-width="8"/>
      <path d="M34 10v48M10 34h48M18 18l32 32M50 18L18 50" stroke="#f97316" stroke-width="6" stroke-linecap="round"/>
    </g>
  </g>
  <g transform="translate(214 424)">
    <rect x="0" y="0" width="292" height="54" rx="8" fill="#111827" stroke="#f97316" stroke-width="4"/>
    <text x="146" y="36" text-anchor="middle" font-family="Impact, Arial Black, sans-serif" font-size="24" fill="#f8fafc">STRATAGEM CRATE</text>
  </g>
</svg>
