<?xml version="1.0" encoding="UTF-8" standalone="no"?>
<svg
   version="1.1"
   id="Layer_1"
   x="0px"
   y="0px"
   width="1000"
   height="362.3071"
   viewBox="0 0 1000 362.30709"
   enable-background="new 0 0 1000 447.66"
   xml:space="preserve"
   sodipodi:docname="Harry_Potter.svg"
   inkscape:version="1.4.2 (f4327f4, 2025-05-13)"
   xmlns:inkscape="http://www.inkscape.org/namespaces/inkscape"
   xmlns:sodipodi="http://sodipodi.sourceforge.net/DTD/sodipodi-0.dtd"
   xmlns="http://www.w3.org/2000/svg"
   xmlns:svg="http://www.w3.org/2000/svg"
   xmlns:rdf="http://www.w3.org/1999/02/22-rdf-syntax-ns#"
   xmlns:cc="http://creativecommons.org/ns#"
   xmlns:dc="http://purl.org/dc/elements/1.1/"><metadata
   id="metadata99"><rdf:RDF><cc:Work
       rdf:about=""><dc:format>image/svg+xml</dc:format><dc:type
         rdf:resource="http://purl.org/dc/dcmitype/StillImage" /></cc:Work></rdf:RDF></metadata><defs
   id="defs97">
	
	
	
	
	
	
	
	
	
	
	
	
	
	
	
	
	
	
	
	
	
	
	
	
	
	
	
	
	
	
	
	
	
	
	
	
	
	
	
	
	
	
	
	
	
</defs><sodipodi:namedview
   pagecolor="#ffffff"
   bordercolor="#666666"
   borderopacity="1"
   objecttolerance="10"
   gridtolerance="10"
   guidetolerance="10"
   inkscape:pageopacity="0"
   inkscape:pageshadow="2"
   inkscape:window-width="1366"
   inkscape:window-height="705"
   id="namedview95"
   showgrid="false"
   inkscape:zoom="0.5"
   inkscape:cx="280"
   inkscape:cy="153"
   inkscape:window-x="-8"
   inkscape:window-y="-8"
   inkscape:window-maximized="1"
   inkscape:current-layer="Layer_1"
   inkscape:showpageshadow="2"
   inkscape:pagecheckerboard="0"
   inkscape:deskcolor="#d1d1d1"
   showguides="false"><inkscape:grid
     id="grid17"
     units="px"
     originx="0.00023887394"
     originy="2.9317016e-06"
     spacingx="1"
     spacingy="0.99999997"
     empcolor="#0099e5"
     empopacity="0.30196078"
     color="#0099e5"
     opacity="0.14901961"
     empspacing="5"
     enabled="true"
     visible="false" /><sodipodi:guide
     position="224.50289,118.68562"
     orientation="0,-1"
     id="guide6"
     inkscape:locked="false" /></sodipodi:namedview>

<path
   id="path2"
   style="display:inline;opacity:1;fill:#000000;stroke-width:1.01048"
   d="m 587.71261,0 c -1.44046,0 -4.81029,0.05034191 -5.16058,0.07655307 -0.89283,0.08775914 -1.7942,0.11472608 -2.69513,0.15507298 -2.06909,0.10187779 -4.14459,0.17615346 -6.2147,0.30425749 -3.86082,0.24612058 -7.72431,0.54298406 -11.5912,0.78910466 -3.95902,0.2430944 -7.9168,0.4551415 -11.87583,0.6831052 -0.36138,0.023206 -0.71736,0.063005 -1.0757,0.092262 -3.77174,0.2733559 -7.54953,0.572755 -11.32227,0.806772 -4.3204,0.2683117 -8.64106,0.4762442 -12.95742,0.7223647 -2.97001,0.1644168 -5.93499,0.3463592 -8.90197,0.5319589 -2.61269,0.1623987 -5.21865,0.3136164 -7.82627,0.5123287 -1.53057,0.1129733 -3.05121,0.2990022 -4.57367,0.4573666 -0.086,0.00804 -0.16307,0.065136 -0.25322,0.088332 -0.18218,0.042362 -0.31245,0.5116281 -0.20415,0.6831062 0.75517,1.1458729 1.84737,1.9472831 2.87179,2.8187921 3.15223,2.6821094 6.30391,5.3675524 9.50068,7.9911584 1.5579,1.282045 2.40585,2.8757 2.62249,4.840628 0.0505,0.442816 0.0859,0.891828 0.13152,1.340694 0.20853,1.962914 0.40222,3.927894 0.63403,5.890805 0.44843,3.923811 0.92884,7.844063 1.36818,11.76787 0.56079,5.000083 1.07652,9.998909 1.62924,14.994955 0.59825,5.441891 1.21109,10.887923 1.82554,16.327804 0.20854,1.875153 0.43615,3.745824 0.64973,5.617952 0.30672,2.676061 0.61833,5.353459 0.90885,8.026494 0.25712,2.411779 0.43875,4.834733 0.72826,7.235426 0.43836,3.578828 0.52616,7.162963 0.45933,10.756947 -0.0132,0.71717 -0.10831,1.4324 -0.19434,2.14354 -0.0729,0.54572 -0.31469,1.0272 -0.68114,1.44277 -0.25914,0.29156 -0.60325,0.41776 -0.9697,0.35725 -0.34924,-0.0565 -0.68693,-0.1895 -1.01288,-0.33174 -0.91914,-0.40752 -1.67183,-1.05368 -2.40068,-1.72346 -1.39491,-1.27701 -2.77522,-2.56465 -4.17519,-3.8356 -0.1073,-0.0969 -0.33043,-0.0889 -0.50252,-0.10207 -0.21764,-0.0141 -0.38923,0.29947 -0.33959,0.62225 0.0507,0.35607 0.0959,0.71195 0.16686,1.06195 1.78465,9.25173 3.59679,18.4972 5.34903,27.76 1.6075,8.46496 3.16803,16.94105 4.46374,25.45943 0.33911,2.21408 0.57275,4.45059 0.81266,6.68385 0.0669,0.61731 0.008,1.25225 -0.0196,1.87461 -0.009,0.31372 -0.56238,0.60373 -0.82052,0.45344 -0.23181,-0.13617 -0.48971,-0.23963 -0.68506,-0.41615 -1.08111,-0.95623 -2.09915,-1.96833 -2.97779,-3.11519 -1.14995,-1.50296 -2.29573,-2.99741 -3.45479,-4.48927 -0.43427,-0.56789 -0.89228,-1.12795 -1.3721,-1.66458 -0.086,-0.10182 -0.32647,-0.15812 -0.46719,-0.11581 -0.13563,0.0373 -0.274,0.20413 -0.3337,0.3494 -0.0687,0.15635 -0.074,0.34955 -0.0608,0.52607 0.34923,4.20524 0.69284,8.40962 1.05018,12.61587 0.17208,1.96999 0.36728,3.93171 0.55355,5.89866 0.2804,2.9484 0.57428,5.89853 0.82836,8.84896 0.44236,5.00915 0.85033,10.0172 1.28965,15.02637 0.4535,5.18972 0.9397,10.37459 1.40941,15.56028 0.1903,2.14348 0.38989,4.29304 0.57513,6.43651 0.25409,2.86671 0.48792,5.72315 0.742,8.58986 0.27634,3.04221 0.55694,6.07567 0.83229,9.11789 0.20853,2.23527 0.40827,4.47111 0.60263,6.70738 0.24901,2.86066 0.48398,5.72524 0.73806,8.58791 0.28951,3.21873 0.58483,6.43494 0.8794,9.65769 0.25306,2.85864 0.51135,5.71927 0.76948,8.58398 0.27231,3.0422 0.56137,6.07758 0.82051,9.12181 0.24902,2.95142 0.46632,5.90534 0.7204,8.85878 0.18525,2.14347 0.40701,4.28699 0.61048,6.43651 0.29457,3.12695 0.59817,6.25386 0.87351,9.38485 0.25914,2.95445 0.47543,5.90734 0.7204,8.85878 0.18018,2.14952 0.36371,4.29293 0.57122,6.44043 0.25813,2.68109 0.56686,5.35718 0.80677,8.03827 0.54765,6.07938 1.06728,12.16615 1.60176,18.24756 0.40695,4.64704 0.82339,9.30363 1.24451,13.95067 0.0223,0.26024 0.11324,0.51106 0.19826,0.88529 0.44441,-0.52554 0.47255,-1.07143 0.49074,-1.59392 0.10528,-2.95749 0.24455,-5.91891 0.27088,-8.8784 0.0769,-7.63984 0.44461,-15.26317 0.70274,-22.89189 0.0222,-0.71922 0.0622,-1.43816 0.11189,-2.15533 0.45755,-6.89742 0.7938,-13.8082 0.86566,-20.72479 0.0587,-6.1036 0.0679,-12.21463 0.19041,-18.31823 0.11337,-5.92405 0.31938,-11.84653 0.53196,-17.77056 0.0678,-1.96999 0.24267,-3.94639 0.42792,-5.91437 0.11337,-1.24674 0.31628,-2.48993 0.53392,-3.7296 0.086,-0.52552 0.28168,-1.03864 0.47503,-1.53895 0.33202,-0.84426 1.18746,-1.1309 1.99829,-0.61243 0.67924,0.43372 1.35921,0.90516 1.9119,1.47809 0.75112,0.76662 1.4205,1.62844 2.05521,2.49491 0.57902,0.79586 1.08228,1.65171 1.60765,2.49294 0.71062,1.14084 1.40349,2.30018 2.1141,3.44301 0.1903,0.30361 0.39976,0.59957 0.64777,0.85781 0.0921,0.0938 0.3454,0.12226 0.477,0.0648 0.1407,-0.0535 0.30708,-0.2447 0.3121,-0.37885 0.0315,-1.3456 0.0726,-2.69431 0.0412,-4.03385 -0.10933,-4.57845 -0.27319,-9.16026 -0.35922,-13.73671 -0.1893,-9.52003 -0.55719,-19.03497 -0.50251,-28.555 0.0303,-4.49271 0.0776,-8.97804 0.17273,-13.46974 0.0365,-1.61288 0.2498,-3.21899 0.39455,-4.82886 0.0455,-0.45291 0.20853,-0.86192 0.51626,-1.21899 0.14172,-0.16443 0.52592,-0.28592 0.72433,-0.16488 0.29963,0.18964 0.66612,0.3402 0.86958,0.6085 0.48488,0.64458 0.93247,1.32272 1.31714,2.02577 1.20865,2.21206 2.11859,4.55963 2.93853,6.93509 1.11958,3.2258 2.2152,6.45631 3.3115,9.68715 0.23687,0.67886 0.45413,1.36159 0.68899,2.04146 0.25813,0.74442 0.58897,1.1358 0.77929,0.94615 0.28135,-0.28545 0.24536,-0.63478 0.24536,-0.97166 -0.005,-0.62843 -0.0203,-1.25617 -0.0608,-1.87854 -0.14879,-2.33513 -0.34399,-4.65784 -0.45737,-6.99398 -0.37049,-7.26156 -0.77198,-14.52497 -1.04428,-21.79461 -0.29458,-7.98479 -0.47192,-15.97467 -0.67133,-23.96955 -0.12654,-5.02229 -0.22886,-10.05394 -0.28856,-15.08329 -0.0901,-7.27166 -0.14555,-14.54651 -0.20022,-21.81817 -0.004,-0.53662 0.0517,-1.07819 0.12759,-1.60372 0.0192,-0.13316 0.20859,-0.3092 0.35334,-0.34548 0.13565,-0.0434 0.38095,0.0178 0.4711,0.12367 0.29963,0.33186 0.56686,0.69447 0.80677,1.07373 1.53057,2.43398 3.0745,4.85866 4.57367,7.31787 2.3829,3.91472 4.72328,7.85095 7.09606,11.77375 0.46564,0.7666 0.95205,1.53082 1.49969,2.23187 0.7663,0.97741 1.80209,1.49681 3.0563,1.42706 0.80577,-0.0454 1.62195,-0.12913 2.41051,-0.29051 6.10403,-1.26088 11.98976,-3.22388 17.69597,-5.70628 2.58636,-1.12267 4.86077,-2.72126 6.8762,-4.6993 2.12479,-2.08195 4.12865,-4.26447 5.69059,-6.81143 0.0952,-0.15533 0.1917,-0.30853 0.31014,-0.44166 0.31583,-0.36521 0.73764,-0.5229 1.20329,-0.45737 0.53449,0.0787 1.05772,0.22582 1.5841,0.33174 1.49715,0.29856 2.99457,0.66492 4.50692,0.86566 2.05086,0.27032 4.12022,0.39352 6.18525,0.6144 1.43138,0.15736 2.86597,0.33025 4.28316,0.56729 0.97381,0.16038 1.93872,0.40065 2.79916,0.93829 0.90599,0.5568 1.43564,1.2986 1.41333,2.42228 -0.0537,2.51467 -0.0453,5.02601 -0.0727,7.53968 -0.16804,14.73192 -0.21633,29.45833 0.57122,44.17613 0.34012,6.36282 0.6832,12.72993 1.16402,19.08771 0.14982,1.92256 0.74637,3.64303 1.86088,5.25088 3.8598,5.56797 8.22882,10.67526 13.25579,15.2305 5.07252,4.59762 9.91718,9.4178 14.54936,14.45319 0.42617,0.46297 0.8613,0.91302 1.32695,1.3407 0.83412,0.76257 1.8312,1.10708 2.96798,1.06587 0.72986,-0.0252 1.4208,-0.1643 2.11017,-0.40436 2.29179,-0.81403 4.60023,-1.57674 6.88798,-2.3948 7.65281,-2.74366 14.94769,-6.22461 21.79068,-10.62151 2.72505,-1.75714 5.37129,-3.62589 7.93031,-5.61403 1.59334,-1.23868 2.42735,-2.85459 2.45369,-4.874 0.0172,-1.43737 0.0463,-2.87419 0.0373,-4.31259 -0.0952,-16.79269 -0.17533,-33.58837 -0.31603,-50.37905 -0.0455,-4.66925 -0.23244,-9.34249 -0.43185,-14.00367 -0.23081,-5.56393 -0.54321,-11.12326 -0.81855,-16.68113 -0.24092,-4.84375 -0.5319,-9.68493 -0.69489,-14.53169 -0.0942,-2.70833 -0.92882,-5.09649 -2.59501,-7.21776 -1.66724,-2.11624 -3.29219,-4.27741 -5.02318,-6.34622 -1.14894,-1.37182 -2.39032,-2.68844 -3.69819,-3.91803 -4.05821,-3.83101 -7.97539,-7.80061 -11.78358,-11.879759 -0.67114,-0.722234 -1.38315,-1.415021 -2.08465,-2.116059 -0.51121,-0.512414 -1.12625,-0.864807 -1.81966,-1.114959 -1.72593,-0.614294 -3.36588,-0.48565 -4.93288,0.453439 -0.9242,0.555791 -1.856,1.110788 -2.75794,1.701876 -6.02305,3.951051 -12.24041,7.568132 -18.64407,10.878652 -5.37115,2.77087 -10.46653,6.00177 -15.36596,9.52815 -0.51221,0.36414 -1.02355,0.7293 -1.51147,1.12673 -0.86145,0.70407 -1.45412,1.58686 -1.69403,2.68532 -0.16702,0.7888 -0.3304,1.58033 -0.4711,2.37516 -0.25307,1.507 -0.48904,3.01072 -0.73807,4.5187 -0.0719,0.43778 -0.17541,0.87742 -0.2807,1.31519 -0.15387,0.65162 -0.57881,0.9303 -1.16796,0.75377 -0.5203,-0.15533 -1.02154,-0.36985 -1.54287,-0.48485 -1.23193,-0.28142 -2.45505,-0.59531 -3.70015,-0.7577 -2.14602,-0.27739 -4.3031,-0.43318 -6.45418,-0.67526 -1.24916,-0.14221 -2.50324,-0.30529 -3.7453,-0.52214 -0.70656,-0.12309 -1.4046,-0.32987 -2.07876,-0.58103 -0.53044,-0.19467 -0.91938,-0.59988 -0.89707,-1.21114 0.0324,-1.07727 0.0469,-2.15791 0.18255,-3.22512 0.70658,-5.43079 1.44093,-10.855 2.17888,-16.27873 0.63774,-4.71763 1.05382,-9.463823 1.32106,-14.211731 0.39886,-6.994269 0.63392,-13.995101 0.44363,-21.005511 -0.17209,-6.195371 -0.26326,-12.388793 -0.38474,-18.585182 -0.0222,-1.348619 -0.0282,-2.69208 -0.0687,-4.04171 -0.0719,-2.671012 -0.81844,-5.124291 -2.40266,-7.30609 -0.26319,-0.361112 -0.51248,-0.740894 -0.76555,-1.109065 -2.0782,-3.041204 -4.18654,-6.07429 -6.23235,-9.131632 C 602.29355,20.969961 596.51407,12.290329 590.72181,3.6216385 590.26931,2.9468238 589.78584,2.29798 589.38701,1.5939139 588.98817,0.89186486 588.6591,0.11599946 587.71261,0 Z m -31.8763,20.255655 c 1.80186,0.02925 3.60619,0.09726 5.40399,0.16685 2.78883,0.110957 5.57822,0.231171 8.36805,0.357257 3.15223,0.138191 6.29854,0.29047 9.4457,0.437738 0.35836,0.01815 0.7224,0.05668 1.0757,0.102073 0.76122,0.101877 1.28398,0.595246 1.47024,1.377989 0.078,0.344971 0.15111,0.703924 0.18649,1.059992 0.0455,0.441807 0.0585,0.89575 0.0727,1.344618 0.22674,6.901464 0.43439,13.809379 0.67329,20.718912 0.25915,7.355376 0.53933,14.708152 0.81266,22.063528 0.0172,0.536625 0.0486,1.076919 0.0628,1.613544 0.24902,8.0776 0.4847,16.148255 0.74788,24.22081 0.15286,4.845768 0.34739,9.686914 0.51037,14.533664 0.0313,0.80494 0.0456,1.61234 0,2.42031 -0.081,1.73293 -1.09035,2.81063 -2.8345,3.04061 -0.44743,0.0614 -0.8972,0.0705 -1.34462,0.0746 -4.51071,0.0313 -9.00218,0.33949 -13.48152,0.81659 -2.77161,0.29556 -5.53472,0.71811 -8.2699,1.27591 -0.7015,0.14425 -1.41608,0.21269 -2.13176,0.29641 -0.33911,0.0404 -0.71427,-0.26186 -0.78714,-0.59674 -0.0597,-0.25722 -0.14866,-0.52092 -0.16685,-0.78518 -0.0455,-0.62236 -0.0694,-1.25112 -0.0785,-1.87854 -0.22776,-14.991165 -0.45244,-29.977205 -0.67919,-44.961315 l 0.055,-0.004 c -0.16803,-10.31788 -0.3403,-20.644639 -0.51036,-30.96353 -0.0729,-4.487667 -0.13444,-8.972263 -0.19826,-13.459931 -0.004,-0.53965 -0.0231,-1.075801 -0.004,-1.617469 0.0354,-1.218499 0.4417,-1.668895 1.60176,-1.654764 z m 199.60624,13.224378 c -0.0466,8e-6 -0.0896,0.0083 -0.12366,0.02748 -0.22574,0.129113 -0.49658,0.236325 -0.65955,0.42596 -0.58005,0.682882 -1.14568,1.385982 -1.68421,2.108205 -3.78084,5.053544 -8.00764,9.70735 -12.65905,13.978149 -1.85247,1.703679 -3.69492,3.422504 -5.51196,5.164516 -2.73011,2.616543 -5.41935,5.267549 -8.14034,7.887127 -6.03216,5.794928 -12.21442,11.438287 -18.50471,16.959867 -0.53853,0.476102 -1.08621,0.945802 -1.61157,1.43098 -0.19941,0.184594 -0.3666,0.392936 -0.54375,0.598706 -0.39478,0.450886 -0.19891,1.162809 0.371,1.244508 1.15805,0.167437 2.31815,0.357689 3.48228,0.414182 2.34038,0.110955 4.68202,0.101408 7.02342,0.198252 3.32837,0.137187 6.66106,0.313268 9.98944,0.488776 2.01443,0.106925 2.95223,1.22695 3.21138,3.005278 0.081,0.53158 0.0901,1.069904 0.1001,1.611574 0.0172,0.987512 0.0138,1.971556 0.0138,2.962093 0.11844,50.195494 0.23085,100.392964 0.35333,150.589484 0,0.98347 -0.009,1.97352 0.0274,2.96405 0.0314,0.71518 0.0814,1.43661 0.212,2.13765 0.22271,1.18218 0.76722,2.20167 1.77647,2.92086 0.58409,0.42163 1.16263,0.85079 1.75683,1.25629 9.32814,6.44553 18.65547,12.88876 27.98967,19.32522 0.96572,0.66171 1.95687,1.27901 2.93069,1.92761 0.53852,0.35506 1.13184,0.56755 1.77058,0.63207 0.34418,0.0324 0.71076,-6e-5 1.05999,-0.0727 0.85133,-0.17348 1.33966,-1.04891 1.01877,-1.85891 -0.15791,-0.41155 -0.36566,-0.83105 -0.63796,-1.16795 -0.4525,-0.55378 -0.97291,-1.064 -1.48006,-1.57036 -3.69076,-3.68777 -7.38223,-7.37536 -11.07299,-11.06514 -0.44338,-0.44483 -0.87737,-0.89297 -1.33088,-1.3348 -0.87864,-0.85939 -1.33136,-1.91756 -1.38191,-3.12698 -0.0365,-0.98749 -0.0174,-1.97553 0.004,-2.96405 0.21863,-10.23519 0.43951,-20.46735 0.67132,-30.7005 0.22979,-10.59126 0.46676,-21.18692 0.70666,-31.77816 0.0192,-0.98853 0.0589,-1.98056 0.0903,-2.96405 0.2804,-9.33443 0.58397,-18.66897 0.8421,-28.00341 0.26623,-9.60071 0.49887,-19.20744 0.74788,-28.81017 0.009,-0.36113 0.0173,-0.7185 0.0314,-1.07963 0.29862,-9.87105 0.59339,-19.74489 0.89707,-29.616944 0.0962,-3.228827 0.18892,-6.460237 0.30229,-9.691074 0.0314,-0.807963 0.10859,-1.613695 0.2493,-2.408542 0.14475,-0.84528 0.67384,-1.461785 1.4624,-1.811797 0.40187,-0.176523 0.84628,-0.30983 1.28965,-0.357257 0.71062,-0.07367 1.43655,-0.07015 2.15728,-0.08834 2.25537,-0.05347 4.50517,-0.08302 6.75646,-0.170775 1.07706,-0.04141 2.15503,-0.160865 3.22905,-0.310152 0.87866,-0.128101 1.62835,-0.934968 1.75488,-1.821615 0.0638,-0.437771 0.0823,-0.889863 0.0863,-1.338729 0.0141,-0.895712 0.006,-1.792047 0.006,-2.051275 -0.11741,-2.074882 -0.18202,-3.51339 -0.2964,-4.942703 -0.10832,-1.317352 -0.87754,-2.084229 -2.13176,-2.463497 -0.79261,-0.234021 -1.59782,-0.286202 -2.40461,-0.300333 -2.34545,-0.04241 -4.68792,-0.07869 -7.02931,-0.10993 -1.26739,-0.01819 -2.51647,-0.158031 -3.74334,-0.484846 -0.742,-0.197699 -1.31001,-0.687661 -1.54485,-1.391724 -0.27737,-0.844275 -0.4532,-1.735967 -0.55747,-2.618573 -0.11233,-0.886637 -0.10753,-1.795485 -0.1217,-2.691207 -0.0637,-4.934512 -0.11678,-9.875811 -0.1806,-14.814363 -0.0547,-4.038799 -0.12649,-8.082402 -0.19433,-12.121201 -0.009,-0.622363 0.0253,-1.256149 -0.25911,-1.843207 -0.0773,-0.154078 -0.36342,-0.314107 -0.56533,-0.314072 z M 156.6199,34.308397 c -0.98697,0.005 -1.97714,-0.0091 -2.96209,0.07459 -1.61661,0.13718 -3.22213,0.354482 -4.83671,0.529995 -5.10593,0.550745 -10.22751,0.96939 -15.36988,1.016807 -1.34937,0.01009 -2.69905,0.102839 -4.05348,0.147221 -2.87993,0.09683 -5.76191,0.234357 -8.64286,0.278739 -3.78793,0.06153 -7.57372,0.04837 -11.35761,0.07459 -0.7177,0.005 -1.44266,0.02743 -2.15532,0.102073 -0.72984,0.07464 -1.15918,0.955905 -0.89902,1.648876 0.39378,1.035924 1.11251,1.838147 1.83731,2.644091 1.98304,2.201973 3.96251,4.411741 5.98503,6.59354 2.4163,2.606457 2.08269,2.459656 2.08269,5.511957 0.008,37.451689 0.008,74.899554 0.004,112.351264 0,0.7222 -0.0146,1.43702 -0.0196,2.15924 0,0.67078 -0.29065,1.21585 -0.76947,1.65869 -0.59319,0.55173 -1.20889,1.07137 -1.83143,1.59588 -3.38506,2.82333 -6.76675,5.65109 -10.17003,8.4603 -2.77364,2.29174 -5.551954,4.58485 -8.366086,6.82516 -3.176525,2.52072 -6.487603,4.84661 -10.001215,6.88013 -2.494251,1.44141 -5.055618,2.76342 -7.763458,3.76101 -0.420092,0.15837 -0.852416,0.27883 -1.287694,0.38474 -0.442363,0.11094 -0.965923,-0.2257 -0.99325,-0.66347 -0.07085,-0.98347 -0.139378,-1.96475 -0.139378,-2.95228 -0.009,-15.62765 -0.01005,-31.25447 -0.01005,-46.87911 V 71.072444 c 0,-1.530187 0.02342,-3.054314 0.02744,-4.583486 0.006,-1.583644 0.524656,-2.990002 1.538951,-4.210519 0.692405,-0.830154 1.401001,-1.639343 2.096431,-2.465467 1.279522,-1.506981 2.561266,-3.020364 3.831673,-4.53441 0.292554,-0.347992 0.501158,-0.736152 0.545701,-1.20721 0.0202,-0.198712 -0.164986,-0.609676 -0.355288,-0.675254 -0.251046,-0.08372 -0.506595,-0.216593 -0.759661,-0.225739 -1.168176,-0.04741 -2.341587,-0.07057 -3.509753,-0.07459 -11.720137,-0.009 -23.43745,-0.01326 -35.150502,-0.03141 -1.535623,0 -3.066661,-0.06783 -4.597223,-0.100111 -0.809822,-0.01312 -1.619851,-0.04797 -2.412463,0.202184 -0.274326,0.08776 -0.527179,0.529928 -0.490736,0.85977 0.04151,0.374227 0.195249,0.692798 0.455403,0.952027 1.08415,1.07527 2.151583,2.169576 3.274197,3.2055 1.262309,1.154949 2.586722,2.240321 3.859154,3.382154 2.031641,1.816651 3.23559,4.075966 3.407677,6.807505 0.110334,1.791434 0.162926,3.589903 0.162926,5.384363 -0.02532,12.572321 -0.07082,25.145638 -0.09815,37.719999 -0.05567,26.22293 -0.103511,52.45099 -0.15311,78.67494 -0.004,2.3331 -0.0139,4.6656 -0.04123,7.00576 -0.007,0.5336 -0.0737,1.07221 -0.135444,1.60176 -0.02632,0.24107 -0.568947,0.6595 -0.804808,0.62422 -0.79666,-0.13013 -1.614516,-0.20505 -2.388907,-0.42596 -4.87715,-1.38593 -9.488031,-3.36811 -13.709225,-6.21666 -6.279153,-4.2476 -12.056736,-9.10538 -17.658676,-14.18817 -0.393776,-0.36109 -0.740507,-0.78184 -1.079621,-1.19741 -0.350248,-0.43979 -0.449421,-0.96363 -0.453441,-1.51539 -0.01215,-0.85537 0.31008,-1.59151 0.828364,-2.22599 0.455525,-0.55478 0.982876,-1.05387 1.517358,-1.53502 3.14312,-2.83544 6.510668,-5.39173 10.040477,-7.73794 0.597243,-0.40047 1.208791,-0.78406 1.801986,-1.18954 0.223713,-0.14726 0.440354,-0.31952 0.612439,-0.51823 0.0931,-0.10996 0.147621,-0.32725 0.102073,-0.45736 -0.04758,-0.13014 -0.227561,-0.27731 -0.361182,-0.29641 -1.628753,-0.20275 -3.248132,-0.0225 -4.846518,0.19434 -5.021905,0.68791 -9.867066,2.0461 -14.5336635,4.02011 -0.4960151,0.2078 -0.9873909,0.43895 -1.4702471,0.68507 -1.6824047,0.85841 -2.8056453,2.21262 -3.43123274,3.98086 C 0.35287377,171.34778 0.19030729,171.95977 0,172.59019 c 0.13868196,0.49629 0.32795306,1.00956 0.42007001,1.53307 0.64178349,3.61313 2.22595859,6.80232 4.29100399,9.79511 2.92548,4.24759 6.394556,7.9991 10.321178,11.3419 5.241569,4.44833 10.991248,8.13331 17.093347,11.27322 3.440729,1.76318 6.971168,3.36477 10.46251,5.0271 0.973811,0.46703 1.942452,0.94699 2.938532,1.35248 0.889792,0.36111 1.196663,1.03765 1.220954,1.90209 0.03644,1.25684 0.05889,2.51404 0.05889,3.76886 0.008,23.98163 0.0079,47.95853 0.0039,71.93614 0,0.90277 -0.07665,1.79642 -0.07263,2.69316 0.02227,2.51969 -1.035355,4.44177 -2.973865,6.05569 -2.76554,2.30081 -5.41622,4.73995 -8.1109,7.12551 -0.741999,0.65565 -1.476932,1.3103 -2.192612,2.00024 -0.254081,0.24106 -0.431823,0.56421 -0.62618,0.85977 -0.171076,0.26024 0.0095,0.79873 0.310146,0.91473 0.33304,0.13012 0.674534,0.28823 1.020733,0.33566 0.71568,0.0877 1.432488,0.12994 2.157279,0.15115 5.222336,0.19165 10.448886,0.33853 15.67021,0.55944 3.603706,0.15332 7.198574,0.40731 10.796207,0.62618 0.355308,0.0231 0.716525,0.0581 1.069813,0.11974 3.282807,0.57698 6.572559,1.11812 9.84222,1.76469 3.176525,0.62438 6.333251,1.35566 9.500661,2.03754 0.437308,0.0908 0.885481,0.12166 1.33088,0.15703 0.300644,0.0293 0.677379,-0.48621 0.575148,-0.76358 -0.09317,-0.24916 -0.156102,-0.52945 -0.316042,-0.73218 -0.561811,-0.69903 -1.157934,-1.37339 -1.745062,-2.05324 -1.997214,-2.31697 -3.99685,-4.62576 -5.986989,-6.9508 -1.208658,-1.40309 -1.909625,-3.04196 -2.049314,-4.88381 -0.08402,-1.07729 -0.133579,-2.1538 -0.129559,-3.22905 0,-6.37695 0.02744,-12.75198 0.03136,-19.12892 0.009,-20.38666 0.01558,-40.7709 0.0196,-61.15956 0,-0.98953 -0.004,-1.98059 0.01568,-2.96404 0.009,-0.44889 0.04874,-0.89895 0.123668,-1.33874 0.09719,-0.57698 0.425701,-0.99269 1.014849,-1.1228 5.602947,-1.2064 10.742113,-3.5929 15.80957,-6.14992 1.044678,-0.5336 2.084089,-1.06787 3.134837,-1.57624 2.927499,-1.41522 5.701437,-3.08204 8.344487,-4.96626 1.97495,-1.4142 3.94113,-2.84289 5.92418,-4.24193 1.61864,-1.14184 3.25171,-2.2709 4.89362,-3.37039 0.43933,-0.29958 0.94086,-0.52747 1.43688,-0.73021 0.71871,-0.29453 1.57247,0.16666 1.63318,0.90099 0.088,1.07324 0.14329,2.1498 0.14329,3.22709 0.004,10.77684 -0.006,21.55681 -0.0101,32.33367 -0.0101,21.28337 -0.0267,42.56624 -0.0177,63.85468 0,4.32021 -0.29273,8.60735 -1.02662,12.86909 -0.80578,4.7136 -2.17302,9.25477 -4.07508,13.63855 -1.79984,4.14673 -4.52245,7.52872 -8.2699,10.0817 -0.67215,0.45592 -1.33268,0.92237 -1.98258,1.40351 -0.43223,0.32379 -0.86262,0.65044 -1.25235,1.02466 -0.58916,0.56386 -1.036725,1.22995 -1.285741,2.0238 -0.37556,1.19428 0.179206,2.22521 1.385851,2.43602 0.70454,0.12012 1.43381,0.22147 2.14746,0.19433 3.15022,-0.14021 6.30253,-0.11991 9.44767,-0.477 2.68456,-0.29958 5.38271,-0.52383 8.08145,-0.64385 6.48667,-0.28243 12.97412,-0.1939 19.45674,0.19041 3.34861,0.19366 6.61278,0.77779 9.81866,1.7431 1.89498,0.57294 3.80676,1.08587 5.72199,1.58213 1.13173,0.29557 2.25739,0.62269 3.45086,0.60852 0.92118,-0.0141 1.78462,-0.20639 2.58128,-0.66937 0.61345,-0.35305 0.94557,-1.14387 0.80285,-1.85498 -0.10629,-0.53965 -0.32534,-1.03257 -0.69685,-1.43099 -0.54967,-0.59111 -1.1154,-1.16991 -1.71366,-1.71562 -1.59635,-1.45654 -3.22399,-2.87445 -4.80921,-4.34008 -2.61573,-2.4148 -4.58691,-5.28003 -6.02234,-8.529 -1.76844,-3.98132 -2.797,-8.14007 -3.09361,-12.47846 -0.21968,-3.14006 -0.29247,-6.28406 -0.29247,-9.42411 0.0182,-23.17469 0.0177,-46.34512 0.0177,-69.51779 0,-17.24053 -0.0182,-34.48496 0,-51.72955 0.005,-2.24131 0.14367,-4.48172 0.29247,-6.72506 0.0547,-0.88665 0.26902,-1.76764 0.45933,-2.64016 0.45856,-2.1253 1.74051,-3.51349 3.85719,-4.06724 1.39693,-0.36112 2.79156,-0.70118 4.20267,-1.01288 6.94625,-1.51704 13.89325,-3.0328 20.84455,-4.52263 3.78694,-0.81199 7.5803,-1.57933 11.37331,-2.33786 0.5203,-0.10573 1.07312,-0.0688 1.60962,-0.0647 0.38063,0.004 0.69546,0.72708 0.48289,1.06196 -0.14273,0.22799 -0.26915,0.47592 -0.45541,0.66151 -0.51423,0.49829 -1.05936,0.97941 -1.59588,1.4565 -2.36162,2.08396 -4.71472,4.17111 -7.07839,6.25003 -1.42933,1.25683 -2.70118,2.65046 -3.79241,4.19678 -1.58017,2.24939 -2.56773,4.74113 -2.81879,7.48275 -0.20752,2.23627 -0.20757,4.48888 0.0982,6.72113 0.33912,2.48642 0.74696,4.97338 1.22881,7.43761 1.15095,5.90288 2.30145,11.80152 3.56275,17.6842 1.65507,7.72557 3.33743,15.44229 5.32352,23.08819 0.49095,1.90741 1.00098,3.81655 1.52128,5.72199 0.48287,1.75913 1.32106,3.33992 2.51453,4.72285 1.46477,1.6946 3.28782,2.7311 5.54926,3.03472 1.82714,0.24712 3.57923,0.0569 5.32744,-0.48878 1.47388,-0.45897 2.82694,-1.15531 4.13986,-1.95116 3.23422,-1.95989 6.4607,-3.92828 9.69695,-5.87707 0.76932,-0.46601 1.54523,-0.93885 2.37124,-1.28181 0.56587,-0.23501 1.21483,-0.31834 1.83536,-0.34547 0.55674,-0.0212 1.08056,0.24109 1.3407,0.76359 0.31482,0.63849 0.59879,1.30257 0.7891,1.98846 0.26927,0.94515 0.4106,1.93227 0.65759,2.8875 0.24396,0.95522 0.57927,1.88933 1.12084,2.72653 0.65392,1.02484 1.56959,1.68466 2.75598,2.03165 2.56612,0.74642 5.00014,0.38932 7.33749,-0.79892 1.36759,-0.70003 2.60012,-1.60776 3.75512,-2.62249 1.62371,-1.43235 3.13928,-2.97355 4.44411,-4.69538 2.66027,-3.53649 5.68465,-6.72804 8.91179,-9.74603 2.42945,-2.27259 4.83423,-4.57537 7.23738,-6.87621 0.51827,-0.49426 0.97927,-1.05017 1.43884,-1.59587 0.28344,-0.34095 -7.3e-4,-1.01481 -0.42792,-1.05411 -0.53145,-0.0454 -1.07115,-0.0841 -1.60765,-0.0962 -1.08011,-0.021 -2.16662,0.0203 -3.24671,-0.0412 -1.98306,-0.10086 -3.3858,-1.10421 -4.1693,-2.92086 -0.247,-0.57394 -0.41275,-1.18318 -0.58889,-1.78235 -0.45452,-1.57255 -0.54293,-3.1844 -0.56926,-4.80334 -0.10224,-5.38641 -0.23723,-10.77447 -0.3121,-16.1629 -0.11945,-8.5295 -0.16211,-17.06437 -0.318,-25.59488 -0.24598,-13.19771 -0.42725,-26.39976 -0.38474,-39.6005 0.005,-2.06581 -0.012,-4.13223 -0.0707,-6.19703 -0.16399,-5.53267 -1.82182,-10.58106 -4.97608,-15.13629 -1.18132,-1.70066 -2.50868,-3.28761 -3.89449,-4.826884 -6.44213,-7.147586 -13.10168,-14.106347 -19.2624,-21.504085 -0.51221,-0.613289 -1.17095,-1.111573 -1.78236,-1.637102 -0.50006,-0.42365 -1.12195,-0.560203 -1.76272,-0.604586 -0.8169,-0.06553 -1.62767,0.02724 -2.38891,0.327811 -0.92117,0.361107 -1.83604,0.749701 -2.71672,1.191512 -1.9294,0.972376 -3.84341,1.973757 -5.74751,2.99153 -5.39744,2.88384 -10.77416,5.807852 -15.98232,9.027593 -1.98811,1.230598 -3.94653,2.520262 -5.88099,3.835603 -1.57105,1.068206 -2.92514,2.386171 -4.07508,3.906257 -2.50944,3.303481 -3.20826,6.948241 -2.05324,10.935581 0.42109,1.47573 0.97813,2.88884 1.6685,4.25764 2.78781,5.5478 5.92601,10.89119 9.34953,16.06476 0.2966,0.45291 0.60196,0.89762 0.94613,1.31321 0.22675,0.27337 0.50441,0.50863 0.79696,0.71844 1.0386,0.73431 2.06635,0.12883 2.44191,-0.75377 0.19942,-0.48014 0.28462,-1.04479 0.28462,-1.57232 -0.0142,-1.61592 -0.0896,-3.23054 -0.14329,-4.84848 -0.0253,-0.80796 -0.0656,-1.6174 -0.0707,-2.42031 -0.0142,-2.57419 0.93273,-4.7222 2.88946,-6.41884 0.61142,-0.53057 1.20875,-1.07645 1.83536,-1.59392 3.94282,-3.28026 7.97998,-6.44509 12.1212,-9.47318 0.87258,-0.6365 1.7706,-1.24829 2.67353,-1.83536 0.68228,-0.43777 1.42875,-0.74942 2.21225,-0.98344 1.36758,-0.41052 2.47438,-0.004 3.43908,0.95204 0.57903,0.58202 0.99408,1.28798 1.28966,2.04146 0.29255,0.74945 0.5099,1.53162 0.71844,2.31235 0.62254,2.2645 0.80037,4.5962 0.94613,6.92528 0.23082,3.76644 0.41159,7.53217 0.56141,11.30265 0.2885,7.17685 0.53369,14.35956 0.79892,21.53943 0.0131,0.35607 0.0273,0.71758 0.0354,1.07569 0.31683,9.69047 0.63143,19.3866 0.94221,29.0791 0.0699,2.24736 0.0738,4.49161 0.16684,6.73291 0.37556,9.06613 0.34926,18.13826 0.48289,27.20842 0.0263,1.70166 -0.0849,3.40891 -0.2277,5.10955 -0.14982,1.79547 -0.50981,3.54887 -1.20525,5.22733 -0.45958,1.10552 -1.13741,2.0192 -2.0768,2.77169 -1.64192,1.31432 -3.46955,2.24397 -5.50017,2.77757 -0.96976,0.25432 -1.96012,0.30223 -2.95621,0.23358 -0.87562,-0.0585 -1.58046,-0.46879 -1.99043,-1.20917 -0.47577,-0.85538 -0.90795,-1.75912 -1.19543,-2.69316 -0.47273,-1.5423 -0.88049,-3.11379 -1.19936,-4.69341 -0.85436,-4.22541 -1.63818,-8.46214 -2.47332,-12.68653 -1.44654,-7.31103 -2.93865,-14.60523 -4.35381,-21.92024 -0.73795,-3.78967 -1.30276,-7.60866 -1.67832,-11.45379 -0.12247,-1.24673 -0.11586,-2.5091 -0.14722,-3.76494 -0.0496,-1.71982 0.62177,-3.16157 1.86283,-4.31652 1.05277,-0.98245 2.14506,-1.92263 3.25653,-2.8345 3.13603,-2.56308 6.29075,-5.09661 9.4359,-7.64961 0.84017,-0.67985 1.66556,-1.37224 2.47134,-2.09446 0.33102,-0.29554 0.62689,-0.64847 0.86173,-1.02269 0.49602,-0.77973 0.27886,-1.58719 -0.4024,-2.16514 -0.47779,-0.41054 -1.07162,-0.66602 -1.7215,-0.71647 -0.71871,-0.0606 -1.43762,-0.11539 -2.15532,-0.13348 -11.00446,-0.31371 -21.98556,0.281 -32.96574,0.77929 -0.18118,0.005 -0.36367,0.0311 -0.53981,0.0471 -1.79779,0.1281 -3.59644,0.25852 -5.39221,0.38866 -0.8989,0.0625 -1.79825,0.12938 -2.69514,0.20807 -3.14312,0.26933 -6.28295,0.53932 -9.42607,0.81267 -3.76972,0.31977 -7.52745,0.75726 -11.18683,1.79217 -0.33709,0.0979 -0.69815,0.20179 -1.04233,0.18059 -0.22674,-0.0142 -0.52744,-0.19489 -0.64385,-0.3926 -0.16703,-0.29555 -0.27472,-0.66993 -0.27874,-1.01287 -0.0476,-1.88422 -0.078,-3.76996 -0.0647,-5.65721 0.0425,-7.27166 0.12878,-14.55045 0.15311,-21.82209 0.0547,-18.05053 0.0892,-36.103158 0.12562,-54.157722 0.0142,-5.476193 0.0361,-10.955652 0.0138,-16.431838 0,-1.051054 0.28648,-1.922144 0.96774,-2.706904 1.24307,-1.426291 2.45561,-2.874419 3.68249,-4.304745 2.11059,-2.459189 4.23015,-4.908488 6.32658,-7.376756 0.45957,-0.545699 0.83724,-1.160483 1.22292,-1.76469 0.22372,-0.347996 -0.12539,-1.044288 -0.52018,-1.044288 z m 214.20664,9.669479 c -0.42622,0.01724 -0.75317,0.393538 -1.09532,0.651699 -0.21258,0.1624 -0.40897,0.357616 -0.61244,0.52607 -1.66216,1.383921 -3.29956,2.797232 -4.98196,4.141819 -3.72214,2.978664 -7.47332,5.917469 -11.20254,8.894114 -1.82715,1.454539 -3.63874,2.943128 -5.43148,4.446078 -0.61648,0.516445 -1.21163,1.07502 -1.74309,1.682248 -1.09629,1.245734 -0.94598,2.514794 0.37099,3.450858 0.58915,0.418605 1.21456,0.778385 1.8118,1.175804 0.52538,0.345981 1.06198,0.684053 1.54484,1.085512 1.02139,0.832174 1.65749,1.878088 1.66654,3.240827 0.005,1.166045 0.0191,2.335908 0.006,3.499933 -0.16803,13.824116 -0.36366,27.649942 -0.5084,41.477082 -0.25713,24.86828 -0.48524,49.7335 -0.73022,74.60378 -0.0334,3.14107 -0.0964,6.28496 -0.1531,9.42804 -0.0223,1.53019 -0.20914,3.04692 -0.62619,4.52263 -0.62255,2.18482 -1.69248,4.14487 -3.1623,5.88688 -1.56699,1.85196 -3.12487,3.7125 -4.67771,5.58262 -0.22371,0.26831 -0.42809,0.56824 -0.32585,0.9697 0.0699,0.28545 0.53832,0.46506 1.16796,0.40044 0.35733,-0.0383 0.71968,-0.0667 1.06588,-0.1433 4.75061,-1.07324 9.54841,-1.80974 14.39822,-2.24953 4.68076,-0.42566 9.35543,-0.4549 14.03115,0 1.70466,0.16543 3.41165,0.27257 5.11937,0.39259 0.26623,0.0183 0.53452,-0.0171 0.8048,-0.0373 0.74203,-0.0515 1.14238,-0.71214 0.7891,-1.30929 -0.18626,-0.3026 -0.37757,-0.6074 -0.58103,-0.90295 -1.35847,-2.00931 -2.71617,-4.02109 -4.08882,-6.02232 -1.10034,-1.59778 -1.69766,-3.35329 -1.73917,-5.29603 -0.0223,-1.25683 -0.0647,-2.51501 -0.0647,-3.77083 -0.005,-19.57198 -0.006,-39.13966 -0.006,-58.71568 h -0.0412 c 0,-7.90007 -0.004,-15.80164 0,-23.69867 0.009,-11.94492 0.0177,-23.885874 0.0491,-35.82575 0.005,-1.525142 0.11756,-3.051721 0.25321,-4.567777 0.11034,-1.265915 0.4993,-2.460854 1.18563,-3.54116 0.49094,-0.780727 1.14968,-1.376046 2.00809,-1.739173 1.01431,-0.43576 2.02216,-0.176684 2.62447,0.696847 0.61647,0.891682 1.05232,1.876731 1.43295,2.889459 1.15501,3.026072 1.96054,6.154497 2.71671,9.29456 0.90295,3.752326 1.78548,7.515014 2.10232,11.375271 0.35126,4.356543 0.1301,8.619893 -2.43602,12.417603 -0.14677,0.22293 -0.22689,0.49191 -0.31996,0.74004 -0.25308,0.70005 -0.0685,1.54464 0.44363,1.98847 0.59826,0.52553 1.29116,0.59602 2.01595,0.33173 0.33304,-0.12406 0.66846,-0.27707 0.95595,-0.48485 0.58408,-0.41962 1.14732,-0.86569 1.69599,-1.33677 5.04012,-4.34343 10.07481,-8.70099 15.10684,-13.057517 0.54359,-0.467027 1.07379,-0.960175 1.58803,-1.458468 0.60736,-0.585048 0.89827,-1.340568 1.05213,-2.145506 0.13362,-0.715159 0.12551,-1.43672 -0.0962,-2.133727 -0.32595,-1.019783 -0.65468,-2.051647 -1.04036,-3.056304 -2.5307,-6.620046 -5.07594,-13.237198 -7.63194,-19.855215 -1.65101,-4.269796 -3.31115,-8.532878 -4.99963,-12.790563 -0.3948,-0.993564 -0.89111,-1.954298 -1.40939,-2.89339 -0.35228,-0.640524 -1.26526,-0.895224 -1.90602,-0.563366 -0.63571,0.333877 -1.26741,0.694115 -1.83733,1.122807 -1.155,0.86445 -2.26941,1.774741 -3.39001,2.675498 -2.1764,1.746047 -4.33642,3.506175 -6.52091,5.239106 -0.7754,0.616314 -1.58472,1.183332 -2.40264,1.741133 -0.52234,0.357077 -1.06339,0.05156 -1.11103,-0.622254 -0.0567,-0.809973 -0.0942,-1.612348 -0.0982,-2.420311 -0.0182,-3.951051 -0.0222,-7.901238 -0.0354,-11.852279 -0.005,-0.804937 0.0128,-1.617397 -0.049,-2.420315 -0.0405,-0.59311 0.1203,-1.336262 -0.63993,-1.609616 -0.11027,-0.0401 -0.21375,-0.05501 -0.31211,-0.05103 z m 446.14853,4.416632 c -0.1475,-0.0084 -0.3542,0.05062 -0.42596,0.143295 -0.47982,0.645563 -0.96035,1.297459 -1.36425,1.990429 -3.25548,5.592182 -6.72134,11.057279 -10.26229,16.476979 -2.50842,3.840086 -5.20198,7.553035 -8.1639,11.05925 -5.16667,6.114688 -10.36616,12.199315 -15.5642,18.288777 -1.28763,1.502961 -2.617,2.970504 -3.89449,4.477482 -0.4039,0.47107 -0.72969,1.01544 -1.06982,1.53895 -0.17209,0.26429 0.0486,0.79823 0.35726,0.89511 0.42516,0.1281 0.8561,0.3014 1.29947,0.33959 0.89283,0.0838 1.79813,0.10949 2.69906,0.12366 2.5236,0.0314 5.04558,0.0311 7.56716,0.0785 0.80678,0.0142 1.62283,0.0795 2.41443,0.22574 0.85132,0.15435 1.44449,0.6756 1.7745,1.4997 0.41299,1.02382 0.45861,2.09074 0.48092,3.17408 0.13564,7.27166 0.28961,14.5465 0.41615,21.81816 0.18524,10.4218 0.36784,20.8354 0.53588,31.25012 0.18929,11.49504 0.36981,22.989 0.53785,34.48506 0.20043,14.09949 0.3792,28.1952 0.5614,42.29368 0.0678,5.74954 0.11769,11.49786 0.18452,17.24841 0.009,0.80495 0.005,1.61437 0.0688,2.42032 0.14981,1.82674 0.97811,3.23757 2.63623,4.12219 0.47475,0.25218 0.93547,0.52719 1.41529,0.77733 1.35443,0.71921 2.71394,1.4203 4.0633,2.14353 12.70712,6.77335 25.41333,13.55319 38.12044,20.31848 1.27344,0.67681 2.57718,1.28348 3.8729,1.9119 0.40188,0.19266 0.82523,0.3803 1.25039,0.50841 1.39998,0.41457 2.6891,0.23779 3.72568,-0.8637 0.55674,-0.58504 1.08787,-1.20528 1.55857,-1.85891 0.74301,-1.01675 1.43628,-2.07127 2.13373,-3.11323 2.8941,-4.3404 5.81405,-8.65445 8.65856,-13.02613 1.50727,-2.31697 3.37718,-4.17693 5.86333,-5.42166 0.72479,-0.36009 1.38703,-0.84067 2.05716,-1.29358 0.28951,-0.19869 0.53015,-0.46918 0.55748,-0.86762 0.0172,-0.28344 -0.45963,-0.69839 -0.96577,-0.78714 -0.35429,-0.0576 -0.71133,-0.11343 -1.07373,-0.13152 -4.1392,-0.20879 -8.27841,-0.40916 -12.4176,-0.59477 -1.62067,-0.0747 -3.24721,-0.0942 -4.42449,-0.12759 -1.70265,-0.10992 -2.95707,-0.21254 -4.21837,-0.265 -3.95699,-0.17551 -7.92372,-0.34724 -11.88172,-0.50055 -0.72074,-0.0283 -1.44572,-0.004 -2.15532,0.0746 -0.34012,0.0373 -0.67471,0.23683 -0.98344,0.40829 -0.36745,0.19568 -0.45445,0.84462 -0.2277,1.18759 0.31685,0.47103 0.76192,0.74906 1.26806,0.95988 1.25927,0.53158 2.60654,0.70599 3.93768,0.91277 4.89537,0.77265 9.78957,1.51411 14.68088,2.28879 0.97381,0.15432 1.94685,0.36773 2.83058,0.85192 0.62861,0.349 1.0019,1.21453 0.68506,1.85303 -0.31178,0.6385 -0.68532,1.26584 -1.12869,1.82161 -1.80693,2.23527 -3.64607,4.44817 -5.48841,6.66225 -0.34519,0.41155 -0.70308,0.82299 -1.11103,1.16794 -1.03251,0.87859 -2.21379,1.21892 -3.5176,0.71256 -0.83311,-0.32885 -1.65043,-0.72087 -2.43798,-1.14048 -3.97218,-2.12228 -7.92764,-4.26169 -11.88564,-6.40313 -1.50931,-0.81604 -3.00325,-1.63967 -4.48927,-2.48901 -0.62053,-0.35102 -1.23093,-0.744 -1.80591,-1.17974 -0.96875,-0.73635 -1.57199,-1.71932 -1.64888,-2.96405 -0.14172,-2.24233 -0.34911,-4.47876 -0.39062,-6.72309 -0.21257,-12.03368 -0.39437,-24.06493 -0.5614,-36.09861 -0.11338,-8.26018 -0.16803,-16.52598 -0.29051,-24.78614 -0.25307,-16.61215 -0.53376,-33.22912 -0.79696,-49.83923 -0.15386,-9.52003 -0.30755,-19.0389 -0.45737,-28.55893 -0.0405,-2.60142 -0.0664,-5.20813 -0.10796,-7.81056 -0.0263,-1.17714 0.0818,-2.32387 0.42596,-3.46068 0.28951,-0.96127 0.90552,-1.56009 1.85301,-1.7588 0.9647,-0.20981 1.94467,-0.36121 2.93265,-0.43578 3.32432,-0.25015 6.65335,-0.43695 9.97767,-0.68507 1.16412,-0.0887 2.32738,-0.25929 3.47834,-0.47111 1.10945,-0.19871 1.73448,-0.93514 1.82554,-2.03361 0.15388,-1.882211 0.10394,-3.766188 -0.0863,-5.647402 -0.0182,-0.175508 -0.0542,-0.354584 -0.11385,-0.526062 -0.23991,-0.718194 -0.67954,-1.256899 -1.40939,-1.525212 -0.94647,-0.356082 -1.93276,-0.414806 -2.92479,-0.427921 -2.16526,-0.02925 -4.32425,-0.04261 -6.48951,-0.06472 -1.80185,-0.02523 -3.60409,-0.04814 -5.40595,-0.08442 -1.08718,-0.02322 -2.16208,-0.16785 -3.19764,-0.494665 -0.63875,-0.20376 -1.0551,-0.669852 -1.31322,-1.270025 -0.10427,-0.246122 -0.15851,-0.516072 -0.20414,-0.77733 -0.26623,-1.506981 -0.40192,-3.02374 -0.44755,-4.557968 -0.22675,-7.267617 -0.47645,-14.536691 -0.72041,-21.808338 -0.14879,-4.487676 -0.30337,-8.974287 -0.46128,-13.459936 -0.0192,-0.448869 -0.0505,-0.897767 -0.10011,-1.344618 -0.0192,-0.171478 -0.0736,-0.362252 -0.17274,-0.504478 -0.087,-0.135164 -0.23985,-0.286664 -0.38866,-0.319961 -0.0181,-0.004 -0.0378,-0.0066 -0.0589,-0.0078 z m -523.93425,4.877924 c -0.14563,0.0084 -0.29697,0.05624 -0.44754,0.145259 -0.76933,0.462988 -1.52608,0.956006 -2.23973,1.499693 -3.29294,2.504573 -6.56613,5.032593 -9.854,7.557347 -6.27815,4.818522 -12.56627,9.628501 -18.84037,14.457113 -0.92319,0.710113 -1.80072,1.491734 -2.68139,2.259346 -0.32798,0.286473 -0.18512,0.964335 0.22181,1.126738 0.33002,0.131126 0.66858,0.286835 1.01681,0.314071 2.24016,0.200725 4.48357,0.394876 6.73487,0.528033 1.62167,0.09276 3.23447,0.215438 4.83083,0.524102 1.25219,0.241076 2.10305,1.101271 2.30449,2.335909 0.0952,0.618324 0.1153,1.251241 0.13349,1.87461 0.31988,10.952376 0.6508,21.900597 0.93828,32.849927 0.17514,6.55146 0.27931,13.1025 0.42203,19.65696 0.20854,9.33644 0.42532,18.67396 0.63993,28.00537 0.20346,8.79983 0.41244,17.59308 0.59869,26.38987 0.16703,7.90412 0.30566,15.8005 0.45345,23.70259 0.0243,1.07526 -0.0241,2.14896 -0.20022,3.22119 -0.23991,1.45758 -0.84527,2.73378 -1.80592,3.84739 -0.52942,0.60923 -1.09663,1.19175 -1.66654,1.76469 -1.45564,1.46965 -2.93155,2.92151 -4.38719,4.38915 -0.44135,0.44888 -0.85395,0.92693 -1.23862,1.42117 -0.44843,0.57297 -0.11578,1.34859 0.59282,1.37996 0.99,0.0473 1.98297,0.1021 2.96993,0.0628 5.22134,-0.22696 10.44313,-0.48806 15.6604,-0.73218 0.3624,-0.0181 0.71925,-0.0652 1.07962,-0.0884 4.13211,-0.26125 8.26966,-0.52911 12.40582,-0.77929 3.23524,-0.19465 6.47744,-0.35408 9.71268,-0.54374 0.35327,-0.0222 0.70677,-0.11391 1.05802,-0.18255 0.27838,-0.0575 0.56031,-0.65855 0.4024,-0.87743 -0.26318,-0.35809 -0.50628,-0.7567 -0.83425,-1.04822 -0.87158,-0.77971 -1.79887,-1.49662 -2.6755,-2.26524 -1.48704,-1.30828 -2.98086,-2.60571 -4.42841,-3.95534 -1.79781,-1.68048 -2.65988,-3.76961 -2.65586,-6.25199 0,-2.15255 -0.0938,-4.30649 -0.17274,-6.46005 -0.13362,-3.49613 -0.29197,-6.99579 -0.43774,-10.49393 -0.0354,-0.89975 -0.0717,-1.79642 -0.10599,-2.69316 -0.28243,-7.35537 -0.57372,-14.71304 -0.84604,-22.06942 -0.2652,-7.17784 -0.5067,-14.35668 -0.75573,-21.53353 -0.009,-0.26798 -3e-5,-0.53878 0,-0.80678 h -0.0903 c -0.26523,-7.6237 -0.53364,-15.25542 -0.80088,-22.88011 -0.25106,-7.26762 -0.49886,-14.53675 -0.74788,-21.80639 -0.0183,-0.53459 -0.066,-1.07696 -0.0883,-1.61157 -0.24598,-5.740455 -0.49948,-11.483503 -0.72826,-17.220943 -0.088,-2.222149 -0.18281,-2.113496 1.9865,-3.299711 0.62458,-0.348002 1.30852,-0.603782 1.97865,-0.851923 0.67216,-0.250152 1.5449,0.168463 1.76861,0.836214 0.25004,0.766606 0.46925,1.548127 0.65955,2.335909 1.23194,5.053537 2.47528,10.104965 3.66875,15.171614 1.071,4.54517 2.1067,9.09107 3.09165,13.65035 0.35633,1.66332 0.52354,3.36984 0.73611,5.06243 0.17513,1.38998 -0.14312,2.6691 -0.98736,3.81598 -0.3715,0.50535 -0.71428,1.0352 -1.01289,1.58998 -0.20752,0.38835 -0.34071,0.82064 -0.46522,1.25236 -0.15893,0.56889 0.32309,1.26615 0.93045,1.4467 0.45552,0.12807 0.88053,0.0699 1.32695,-0.0471 1.08921,-0.28647 1.89677,-1.00683 2.71671,-1.70383 4.79111,-4.09026 9.57584,-8.18295 14.36289,-12.27824 0.47882,-0.40652 0.96474,-0.81685 1.38584,-1.27984 0.81792,-0.8826 1.30876,-1.9229 1.32696,-3.15249 0.0182,-1.1731 -0.0599,-2.3235 -0.31801,-3.47442 -0.87157,-3.85421 -1.86125,-7.676923 -2.97779,-11.465581 -2.24017,-7.583337 -4.77734,-15.058311 -8.11482,-22.240189 -0.97786,-2.117244 -2.08883,-4.171926 -3.20942,-6.220587 -0.46868,-0.859401 -1.09088,-1.643504 -1.68814,-2.424241 -0.42616,-0.553771 -1.07174,-0.674234 -1.71757,-0.529992 -0.51829,0.116 -1.04399,0.301056 -1.50559,0.565329 -0.78249,0.43777 -1.52489,0.943461 -2.27701,1.442769 -3.13806,2.103114 -6.26922,4.22065 -9.41234,6.318729 -0.59926,0.397418 -1.22927,0.743289 -1.85891,1.095321 -0.40491,0.220905 -0.95447,-0.04372 -1.03447,-0.496625 -0.15387,-0.882607 -0.32552,-1.765193 -0.4024,-2.65587 -0.23383,-2.592332 -0.42468,-5.187669 -0.62815,-7.785046 -0.20852,-2.685137 -0.41164,-5.370806 -0.62422,-8.055942 -0.0202,-0.268313 -0.0571,-0.540856 -0.14526,-0.793028 -0.18296,-0.547726 -0.57006,-0.867308 -1.00699,-0.842105 z m 666.86043,23.714367 c -0.1395,-3.12e-4 -0.27005,0.02593 -0.37297,0.08442 -0.87468,0.496284 -1.56258,1.211533 -2.20639,1.960983 -1.57914,1.843897 -3.15191,3.696186 -4.71892,5.553178 -6.65673,7.910162 -13.30449,15.82665 -19.96122,23.74187 -0.28951,0.33991 -0.5789,0.68795 -0.8421,1.05409 -0.15994,0.21183 -0.28302,0.45791 -0.40045,0.69293 -0.24092,0.46199 -0.008,1.142 0.49467,1.37602 0.40289,0.18965 0.82803,0.36972 1.25825,0.45344 1.06087,0.19874 2.13778,0.32065 3.19764,0.5143 1.35847,0.24814 2.2622,0.98899 2.62053,2.38301 0.26825,1.05305 0.40806,2.11144 0.41811,3.19175 0.0364,2.96252 0.054,5.92561 0.11778,8.89216 0.28445,14.4495 0.59324,28.90404 0.86958,43.35758 0.11642,5.92505 0.16246,11.85237 0.27482,17.77842 0.23484,12.12044 0.48963,24.23939 0.75181,36.35378 0.0769,3.51931 -0.1866,7.00133 -0.92456,10.43896 -0.66101,3.0876 -1.67493,6.05532 -3.20549,8.83326 -2.68557,4.86997 -6.44048,8.60375 -11.59905,10.85314 -0.40693,0.17551 -0.805,0.38222 -1.18562,0.62029 -0.1174,0.0675 -0.16289,0.28251 -0.19826,0.43381 -0.0142,0.0605 0.0813,0.17898 0.15311,0.20611 0.494,0.19973 0.98552,0.42527 1.49773,0.55944 9.92537,2.63066 19.89933,5.00558 30.06058,6.56803 4.09368,0.62841 8.18707,1.23388 12.32729,1.55465 2.95991,0.22494 5.90836,0.59422 8.88043,0.79696 2.2371,0.15128 4.49138,0.13664 6.74264,0.19826 0.23488,0.007 0.3399,-0.12133 0.2984,-0.35334 -0.0181,-0.0787 -0.0392,-0.18456 -0.0945,-0.21592 -0.61648,-0.35607 -1.23277,-0.73248 -1.87659,-1.04821 -2.19156,-1.0682 -4.27459,-2.30736 -6.19892,-3.80223 -4.35589,-3.38317 -7.19942,-7.7421 -8.41712,-13.11641 -0.45357,-2.00931 -0.82985,-4.04848 -1.10523,-6.08907 -0.66502,-4.80743 -0.99286,-9.64353 -1.10121,-14.49637 -0.17306,-7.72253 -0.30301,-15.43834 -0.4397,-23.15886 -0.19025,-10.77584 -0.36532,-21.54696 -0.55156,-32.32385 -0.17718,-10.59023 -0.3596,-21.18691 -0.5398,-31.77816 -0.14171,-8.1694 -0.28965,-16.33891 -0.41618,-24.51133 -0.0171,-1.15998 0.0895,-2.33095 0.1394,-3.496 0.0402,-1.03089 0.46291,-1.89608 1.08744,-2.70102 1.55789,-1.99721 3.93187,-2.24014 6.02826,-0.95203 0.4383,0.26831 0.78584,0.73129 1.08554,1.16401 0.24492,0.36617 0.38824,0.81105 0.52995,1.23471 2.56212,7.66201 5.09861,15.32616 7.68495,22.98414 1.07297,3.19654 0.98584,4.58797 -1.02854,7.5868 -0.85136,1.26592 -1.6978,2.54156 -2.50866,3.83167 -0.43025,0.68389 -0.85106,1.38157 -1.17186,2.12195 -0.4404,1.00063 -0.62473,2.05538 -0.22181,3.14072 0.1407,0.37522 0.65186,0.7345 1.06382,0.64777 0.3402,-0.0747 0.7197,-0.14806 1.00111,-0.33567 0.66614,-0.45796 1.30031,-0.96847 1.91981,-1.48595 4.41549,-3.70492 8.63983,-7.61552 12.57663,-11.82479 2.87991,-3.08254 5.74716,-6.17211 8.30516,-9.53207 v 0 -4.31458 c -0.13156,-0.11095 -0.34864,-0.2084 -0.37498,-0.34155 -0.3208,-1.41921 -0.99297,-2.68904 -1.64493,-3.96908 -3.03378,-6.0128 -6.07309,-12.02275 -9.11199,-18.03556 -2.22494,-4.40697 -4.45188,-8.81539 -6.67993,-13.224382 -0.44945,-0.881592 -0.86483,-1.778872 -1.53498,-2.526312 -0.58915,-0.660696 -1.32533,-0.915541 -2.18674,-0.740033 -0.43528,0.08874 -0.87428,0.231066 -1.26805,0.433811 -0.79769,0.412554 -1.58161,0.849732 -2.34182,1.330879 -2.66835,1.679474 -5.32032,3.372557 -7.9735,5.074222 -0.68432,0.43979 -1.38694,0.829139 -2.18865,1.018767 -0.77849,0.184594 -1.72965,-0.287468 -1.9787,-1.018767 -0.32593,-0.938085 -0.50784,-1.904872 -0.58885,-2.893389 -0.18522,-2.147496 -0.37527,-4.293143 -0.6203,-6.432578 -0.14472,-1.247744 -0.39015,-2.482281 -0.63005,-3.713894 -0.0643,-0.346484 -0.56111,-0.587932 -0.9795,-0.588887 z m -80.31601,11.687393 c -0.76603,0.04744 -1.51823,0.332765 -2.24757,0.840144 -0.80982,0.563852 -1.5901,1.180608 -2.32806,1.839274 -1.40402,1.263894 -2.79847,2.538623 -4.14378,3.86505 -5.82768,5.74753 -11.63229,11.51998 -17.44276,17.28768 -0.50714,0.50736 -1.02265,1.01145 -1.50754,1.53699 -0.93838,1.02179 -1.52256,2.20849 -1.73916,3.58433 -0.24903,1.59979 -0.45752,3.194 -0.48486,4.82101 -0.0445,3.14308 -0.13655,6.28209 -0.23163,9.42215 -0.30874,10.05665 -0.62352,20.10522 -0.93632,30.15479 -0.0495,1.70568 -0.0734,3.4127 -0.11385,5.11741 -0.0365,0 -0.0715,0.001 -0.10992,-0.002 -0.0547,1.79648 -0.12712,3.58988 -0.17275,5.38436 -0.27231,10.59528 -0.53839,21.18493 -0.81069,31.7762 -0.0719,2.69321 -0.15289,5.38837 -0.25715,8.07753 -0.0992,2.62461 0.68691,4.91134 2.33591,6.9822 1.7887,2.24938 3.47939,4.58433 5.1547,6.91742 2.73416,3.7927 5.41846,7.6186 8.13642,11.4224 0.99203,1.38491 2.01505,2.7585 3.04453,4.12022 1.36253,1.81262 3.19632,2.80202 5.43344,3.20549 2.22701,0.39541 4.46911,0.55039 6.71131,0.74004 3.23423,0.2703 6.47231,0.39825 9.71464,0.51625 1.82108,0.0625 3.34321,-0.64068 4.46177,-2.10428 0.59726,-0.78375 1.18129,-1.58475 1.7431,-2.39675 5.37621,-7.75986 10.74466,-15.51667 16.1158,-23.28057 0.35733,-0.51846 0.71554,-1.03854 1.03643,-1.5782 0.67014,-1.14082 0.82045,-2.34346 0.43578,-3.62753 -0.36644,-1.22152 -0.97795,-2.31461 -1.67439,-3.3586 -2.80402,-4.18204 -5.62143,-8.34862 -8.44264,-12.52361 -0.14983,-0.2209 -0.31277,-0.43702 -0.48485,-0.64581 -0.10932,-0.14323 -0.23983,-0.26633 -0.35725,-0.39848 -0.57497,-0.62337 -1.46702,-0.5269 -1.76666,0.23163 -0.31583,0.83519 -0.60334,1.69046 -0.83818,2.54987 -3.07935,11.3498 -6.14959,22.69165 -9.22389,34.04143 -0.21256,0.7767 -0.41197,1.56794 -0.71058,2.31236 -0.19841,0.48416 -0.53916,0.92931 -0.88333,1.3348 -0.44034,0.53058 -1.18252,0.62719 -1.70384,0.22574 -0.56586,-0.43071 -1.12264,-0.89076 -1.61158,-1.41529 -3.01152,-3.21872 -5.997,-6.46004 -8.9903,-9.69695 -0.36239,-0.3964 -0.70935,-0.80908 -1.04036,-1.23274 -0.67013,-0.87051 -1.12387,-1.84304 -1.2504,-2.94049 -0.18525,-1.6018 -0.44305,-3.20512 -0.4927,-4.81904 -0.26217,-7.98478 -0.46997,-15.9768 -0.70077,-23.96562 -0.28648,-10.32194 -0.57628,-20.63962 -0.86174,-30.96157 -0.0272,-1.07829 -0.05,-2.16061 -0.0196,-3.23691 0.0192,-0.52551 0.14321,-1.06075 0.27481,-1.57821 0.20347,-0.74947 0.80393,-1.21641 1.57428,-1.24254 1.35341,-0.0525 2.69107,0.0398 4.01816,0.38277 4.2708,1.09847 8.55081,2.16206 12.83375,3.2212 4.36595,1.07626 8.74123,2.13805 13.12034,3.17801 0.7835,0.18562 1.59306,0.27703 2.39479,0.34155 1.04062,0.0888 1.98338,-0.26772 2.69906,-1.00306 0.75112,-0.77166 1.48918,-1.57601 2.0925,-2.45761 2.93863,-4.30811 5.81818,-8.65019 8.75278,-12.96134 1.06799,-1.57559 1.42585,-3.22134 1.04625,-5.10759 -0.36645,-1.85599 -0.90999,-3.65895 -1.51736,-5.44129 -2.74427,-8.07257 -5.50555,-16.14248 -8.264,-24.211 -0.46666,-1.3577 -0.92538,-2.71625 -1.38192,-4.079 -0.66203,-1.95181 -1.88789,-3.44647 -3.6452,-4.51871 -0.30773,-0.18964 -0.61091,-0.38353 -0.91865,-0.57318 -4.04404,-2.52575 -8.09906,-5.043086 -12.13298,-7.578935 -2.28574,-1.438398 -4.54064,-2.919138 -6.81928,-4.365596 -0.8331,-0.532595 -1.68564,-1.040767 -2.54202,-1.535031 -0.78502,-0.448866 -1.56398,-0.640213 -2.33002,-0.592806 z m -1.06195,14.247068 c 0.2398,-0.001 0.48265,0.009 0.72825,0.0294 0.84222,0.0696 1.55798,0.50352 1.96491,1.2661 0.62963,1.18623 1.27084,2.37512 1.79217,3.61379 2.13691,5.04044 4.2251,10.09935 6.32659,15.15591 2.89814,6.963 5.79307,13.92378 8.68211,20.88576 0.37656,0.90984 0.70251,1.84365 1.03251,2.77365 0.0962,0.25217 0.14751,0.51502 0.20218,0.77929 0.15488,0.82208 -0.43032,1.68993 -1.25432,1.76862 -0.61547,0.0605 -1.25409,0.0788 -1.87462,-0.004 -2.05188,-0.26933 -4.0982,-0.57428 -6.14402,-0.89707 -4.09465,-0.64253 -8.17995,-1.29837 -12.26449,-1.95705 -1.06491,-0.17652 -2.13722,-0.33357 -3.1839,-0.59282 -0.69241,-0.16541 -1.36852,-0.44736 -2.00221,-0.78125 -0.66608,-0.35002 -1.06359,-0.96072 -1.14048,-1.72936 -0.0456,-0.53056 -0.064,-1.07098 -0.055,-1.60962 0.0375,-1.7057 0.0814,-3.40989 0.14525,-5.10954 0.13565,-3.59193 0.27626,-7.17685 0.42203,-10.76677 h -0.0824 c 0.21763,-5.65271 0.42256,-11.30627 0.66347,-16.95595 0.0375,-0.8009 0.21627,-1.59433 0.39849,-2.37908 0.16702,-0.71216 0.56617,-1.33568 1.11887,-1.81181 1.31444,-1.13677 2.846,-1.67126 4.5246,-1.67832 z m -204.05232,4.48338 c 0.55717,-0.0324 1.09295,0.47558 0.98933,1.03251 -0.0496,0.26326 -0.0809,0.53301 -0.16293,0.78517 -0.95458,2.80014 -2.09187,5.52728 -3.53134,8.12465 -1.13678,2.05168 -2.50951,3.92812 -4.12612,5.62777 -1.92434,2.01435 -4.05258,3.80781 -6.27554,5.49232 -0.92826,0.70911 -1.94769,1.28649 -3.0622,1.65869 -0.86955,0.2895 -1.91443,-0.24808 -2.18672,-1.09336 -0.0769,-0.25519 -0.15795,-0.51697 -0.19434,-0.78125 -0.17614,-1.23867 -0.32971,-2.48111 -0.49269,-3.71979 0.0274,-0.005 0.0542,-0.0101 0.0805,-0.0138 0,-0.44687 0.005,-0.89575 0,-1.34462 -0.009,-1.33147 0.50276,-2.45306 1.46239,-3.34878 0.71568,-0.67178 1.47559,-1.30832 2.2672,-1.89032 1.58928,-1.17815 3.20761,-2.31173 4.81512,-3.46264 2.55802,-1.82977 5.11317,-3.65285 7.67119,-5.47859 0.58409,-0.41557 1.16434,-0.84231 1.76665,-1.23469 0.22067,-0.14224 0.49297,-0.21149 0.74201,-0.30426 0.0787,-0.0281 0.15792,-0.0444 0.23751,-0.049 z m -222.59629,1.00503 c -0.35329,-0.0182 -0.71974,0.0177 -1.06391,0.0923 -0.13565,0.0272 -0.28032,0.21682 -0.32585,0.36512 -0.0445,0.14725 -0.0303,0.39777 0.0647,0.49465 0.49804,0.51142 1.01779,1.01226 1.56644,1.47222 1.37163,1.16 2.75855,2.31136 4.15751,3.43908 1.57614,1.2659 2.0603,2.8886 1.63515,4.81118 -0.19538,0.87351 -0.42568,1.74553 -0.69293,2.60091 -0.8736,2.82737 -1.75748,5.65676 -2.67157,8.47404 -2.16525,6.66341 -4.75126,13.17072 -7.26879,19.70603 -4.90044,12.73471 -10.00943,25.39081 -15.28744,37.97323 -0.48692,1.15899 -1.01557,2.29957 -1.57232,3.4273 -0.19537,0.38733 -0.51688,0.72539 -0.81854,1.05018 -0.44541,0.48114 -1.39281,0.34439 -1.61552,-0.2336 -0.25508,-0.66976 -0.50049,-1.34754 -0.66347,-2.03949 -0.24699,-1.05006 -0.42016,-2.11188 -0.61047,-3.17606 -0.82096,-4.59459 -1.64167,-9.18333 -2.45958,-13.77792 -0.80982,-4.59862 -1.6115,-9.19503 -2.42031,-13.79363 -0.80577,-4.5946 -1.61068,-9.1911 -2.41443,-13.78972 -0.77439,-4.41504 -1.54903,-8.83957 -2.31431,-13.26167 -0.075,-0.43979 -0.0812,-0.89704 -0.15311,-1.3348 -0.34012,-2.08093 0.35546,-3.65594 2.12391,-4.8583 1.11249,-0.75148 2.09058,-1.70383 3.12108,-2.57734 0.27432,-0.23202 0.48734,-0.51327 0.43578,-0.91474 -0.0355,-0.27336 -0.39426,-0.50448 -0.85585,-0.50448 -0.90194,-0.004 -1.80419,-0.022 -2.69905,0.0274 -4.32242,0.22293 -8.6391,0.46761 -12.95546,0.70667 -2.43148,0.14021 -4.85699,0.27741 -7.28646,0.43577 -1.88588,0.11903 -3.77527,0.25895 -5.66114,0.41025 -0.34823,0.0333 -0.69739,0.15713 -1.03447,0.26304 -0.37655,0.12003 -0.65428,0.79471 -0.47307,1.13262 0.12046,0.23503 0.2302,0.49357 0.40633,0.67918 0.69038,0.71012 1.36901,1.43812 2.11606,2.08268 1.8545,1.60381 2.85717,3.632 3.3056,6.01252 0.58408,3.08659 1.23328,6.15937 1.89228,9.22782 1.90207,8.86436 3.81544,17.72597 5.73573,26.58026 2.05392,9.4716 4.12867,18.94106 6.17347,28.41367 0.95053,4.3858 1.82704,8.78756 2.77757,13.17334 0.61243,2.84048 0.31112,5.52625 -1.17187,8.05202 -0.22879,0.39035 -0.42354,0.79705 -0.63208,1.19347 -0.80172,1.50699 -1.58853,3.01978 -2.4105,4.5187 -9.65509,17.65613 -19.31198,35.30824 -28.97114,52.96032 -0.30064,0.54974 -0.59263,1.10938 -0.92062,1.64299 -0.28343,0.45895 -0.59746,0.89718 -0.92847,1.32891 -0.69139,0.89672 -1.62374,1.43871 -2.74027,1.5527 -0.97787,0.0958 -1.98114,0.13715 -2.96406,0.0727 -2.06707,-0.13011 -4.13203,-0.33445 -6.19506,-0.5241 -3.58445,-0.3268 -7.17248,-0.66219 -10.75695,-1.00111 -2.51348,-0.23299 -5.02734,-0.46828 -7.53576,-0.71843 -2.50842,-0.25218 -5.01359,-0.539 -7.52201,-0.78714 -2.60155,-0.25418 -5.20314,-0.48421 -7.80469,-0.7263 -3.49539,-0.33489 -6.99156,-0.6721 -10.48999,-1.00698 -2.51348,-0.23807 -5.02327,-0.47259 -7.53575,-0.70863 -2.95787,-0.27537 -5.91762,-0.55295 -8.87448,-0.83033 -2.06504,-0.19366 -4.13135,-0.37057 -6.18525,-0.60458 -0.61748,-0.0705 -1.23766,-0.25991 -1.81769,-0.48486 -0.90598,-0.36108 -1.40754,-1.10964 -1.59784,-2.0336 -0.16095,-0.7999 -0.11904,-1.61297 0.11581,-2.39873 0.12754,-0.43577 0.27546,-0.86049 0.44755,-1.27003 1.35847,-3.23286 2.7117,-6.4567 4.10256,-9.67341 0.35329,-0.82108 0.79399,-1.61229 1.24648,-2.38497 0.60534,-1.02784 1.47622,-1.80591 2.53809,-2.35162 0.40289,-0.20677 0.81496,-0.38552 1.22291,-0.57514 3.75656,-1.7279 7.5185,-3.46214 11.2791,-5.19003 1.63281,-0.75449 3.2757,-1.49254 4.90345,-2.2672 0.47779,-0.23504 0.91515,-0.55208 1.35246,-0.86174 0.36742,-0.2542 0.28793,-0.92976 -0.0785,-1.13654 -0.56586,-0.32479 -1.16907,-0.45742 -1.80983,-0.48878 -3.41747,-0.17753 -6.83289,-0.35263 -10.25641,-0.52411 -0.45047,-0.0221 -0.90003,-0.006 -1.35049,-0.006 -0.71671,0 -1.44148,0.0152 -2.16122,-0.002 -2.61065,-0.0685 -5.22542,-0.10548 -7.83608,-0.23359 -2.46896,-0.12003 -4.57821,0.57697 -6.42866,2.25543 -2.73516,2.47733 -5.55008,4.86542 -8.32878,7.29235 -1.5093,1.31835 -2.7083,2.87355 -3.59808,4.66396 -2.38899,4.83668 -4.77362,9.66951 -7.13728,14.50618 -0.35328,0.72727 -0.63164,1.48866 -0.87155,2.26132 -0.23281,0.7192 -0.0983,1.44215 0.35726,2.04735 0.32392,0.4176 0.68587,0.84445 1.11102,1.15814 0.79262,0.58305 1.62866,1.12546 2.48706,1.60961 10.58133,5.98662 21.77598,10.30425 33.80588,12.35088 4.34874,0.74542 8.69125,1.52035 13.03594,2.2829 5.05936,0.88665 10.11605,1.73158 15.24424,2.12195 2.15313,0.16036 4.30505,0.40169 6.45614,0.61047 2.87081,0.27741 5.73677,0.57022 8.60556,0.82641 2.96395,0.25622 5.92928,0.46435 8.8902,0.7145 5.56651,0.47108 11.12937,0.95183 16.69486,1.43296 1.3443,0.12004 2.68462,0.28833 4.02993,0.40633 1.52652,0.13922 3.05804,0.27244 4.58152,0.36119 0.62761,0.0323 1.25486,-0.0564 1.88247,-0.11189 0.56181,-0.0474 1.05233,-0.30664 1.43295,-0.69096 0.50918,-0.50636 0.99347,-1.04427 1.40547,-1.62728 0.52031,-0.73131 0.9738,-1.5121 1.41921,-2.28881 10.23918,-17.84475 20.40313,-35.73404 30.71621,-53.53743 10.04887,-17.34847 19.25903,-35.12223 27.69129,-53.30187 6.11821,-13.1957 12.019,-26.49522 17.82946,-39.83214 4.80528,-11.02802 9.57638,-22.07356 14.34521,-33.12277 0.49803,-1.1499 0.92998,-2.33233 1.33285,-3.51956 0.27535,-0.79687 -0.25576,-1.6249 -1.0757,-1.89425 -0.86954,-0.28645 -1.75982,-0.37465 -2.66175,-0.42006 -4.13921,-0.22394 -8.27758,-0.44405 -12.41172,-0.68311 -3.33343,-0.19871 -6.65828,-0.43718 -9.98159,-0.63992 -3.24232,-0.19369 -6.48141,-0.37807 -9.71463,-0.55355 z m 117.89463,16.90294 c 0.20448,0.0242 0.56556,0.0344 0.91277,0.10992 3.51868,0.72423 7.04211,1.45483 10.55674,2.20832 0.5203,0.10995 1.03223,0.31425 1.52521,0.52606 0.85229,0.37424 1.22962,1.40473 0.84799,2.26918 -0.14475,0.32783 -0.29387,0.65883 -0.50644,0.94024 -1.30483,1.70974 -2.62236,3.4169 -3.94946,5.11152 -0.22269,0.28243 -0.49843,0.51864 -0.76162,0.7577 -0.80475,0.7343 -1.91415,0.75248 -2.67942,0.0373 -0.32495,-0.30966 -0.65168,-0.6242 -0.91081,-0.98933 -1.99722,-2.86872 -3.98557,-5.74711 -5.9595,-8.635 -0.2055,-0.29152 -0.31721,-0.6398 -0.4397,-0.97166 -0.21764,-0.6032 0.29447,-1.31347 0.93828,-1.3407 0.0911,0 0.18099,-0.008 0.42596,-0.0235 z m 110.92224,7.99901 c 0.24645,-0.008 0.49322,-0.003 0.742,0.0177 0.7015,0.0585 1.1999,0.45314 1.4722,1.04625 0.40795,0.89975 0.62346,1.86561 0.71452,2.85413 0.38466,4.2012 0.79771,8.39705 1.1601,12.59623 0.30876,3.6636 0.6022,7.32879 0.84211,10.9984 0.23483,3.49512 0.43614,6.98707 0.58495,10.48018 0.62455,15.15255 0.96884,30.30797 0.70666,45.47364 -0.0193,1.16402 -0.078,2.32992 -0.0962,3.49797 -0.0132,0.90581 -0.21371,1.78106 -0.51233,2.63035 -0.4859,1.40513 -1.32626,2.5335 -2.67157,3.24868 -0.55169,0.29554 -1.10182,0.60375 -1.66262,0.88921 -3.44174,1.76722 -6.88349,3.53305 -10.32118,5.28818 -0.56181,0.28545 -1.1328,0.55069 -1.70776,0.80285 -1.39492,0.61734 -2.64763,0.28566 -3.75709,-0.66151 -0.53853,-0.46904 -1.01931,-1.01463 -1.51735,-1.5311 -2.10552,-2.208 -4.16315,-4.47534 -6.33247,-6.62887 -2.02455,-2.0053 -2.99745,-4.42637 -3.25457,-7.19421 -0.0505,-0.53056 -0.047,-1.07194 -0.0511,-1.61158 -0.17714,-12.19912 -0.34316,-24.39892 -0.51625,-36.60308 h 0.0274 c -0.19942,-10.94026 -0.39952,-21.8831 -0.59085,-32.82637 -0.0223,-1.43738 -0.0314,-2.87538 -0.0314,-4.30671 0,-0.53561 -9e-5,-1.08717 0.1001,-1.60765 0.21258,-1.12973 0.84633,-1.98681 1.93351,-2.41247 0.66507,-0.26326 1.36434,-0.46862 2.07091,-0.59673 3.09656,-0.55479 6.20287,-1.07306 9.30045,-1.60766 3.72315,-0.64254 7.44911,-1.28852 11.1672,-1.9492 0.73037,-0.12858 1.46114,-0.26308 2.20047,-0.28659 z" /></svg>
