<svg xmlns="http://www.w3.org/2000/svg" viewBox="0 0 720 520" role="img" aria-labelledby="title desc">
  <title id="title">Spell fizzle reset</title>
  <desc id="desc">A friendly spell fizzle reset card for a miss.</desc>
  <rect width="720" height="520" fill="#312e81"/>
  <path d="M0 320h720v200H0z" fill="#1e1b4b"/>
  <g transform="translate(286 140)">
    <path d="M72 0 L88 48 H136 L98 78 L112 128 L72 98 L32 128 L46 78 L8 48 H56 Z" fill="#a78bfa" opacity="0.35"/>
    <path d="M72 20 L80 52 H108 L86 72 L94 104 L72 86 L50 104 L58 72 L36 52 H64 Z" fill="#c4b5fd" opacity="0.5"/>
    <circle cx="120" cy="40" r="8" fill="#fde68a" opacity="0.6"/>
    <circle cx="24" cy="80" r="6" fill="#fde68a" opacity="0.5"/>
    <circle cx="140" cy="110" r="5" fill="#fde68a" opacity="0.4"/>
  </g>
  <g transform="translate(124 392)">
    <rect x="0" y="0" width="472" height="64" rx="10" fill="#111827" stroke="#a78bfa" stroke-width="5"/>
    <text x="236" y="42" text-anchor="middle" font-family="Georgia, serif" font-size="28" font-weight="700" fill="#fef3c7">SPELL FIZZLED</text>
  </g>
</svg>
