<svg xmlns="http://www.w3.org/2000/svg" viewBox="0 0 720 520" role="img" aria-labelledby="title desc">
  <title id="title">Five correct shelf selfie</title>
  <desc id="desc">A toy shelf celebration for five correct answers.</desc>
  <rect width="720" height="520" fill="#bfdbfe"/>
  <rect x="0" y="300" width="720" height="220" fill="#fef3c7"/>
  <rect x="0" y="280" width="720" height="24" fill="#f59e0b"/>
  <g transform="translate(90 96)">
    <rect x="112" y="94" width="148" height="168" rx="12" fill="#7c2d12"/>
    <rect x="84" y="80" width="88" height="126" rx="10" fill="#facc15"/>
    <rect x="200" y="80" width="88" height="126" rx="10" fill="#facc15"/>
    <rect x="130" y="0" width="116" height="116" rx="14" fill="#facc15"/>
    <circle cx="165" cy="48" r="8" fill="#111827"/>
    <circle cx="211" cy="48" r="8" fill="#111827"/>
    <path d="M160 76 Q188 94 216 76" fill="none" stroke="#111827" stroke-width="8" stroke-linecap="round"/>
    <polygon points="248,120 320,90 320,170 248,200" fill="#1d4ed8" stroke="#111827" stroke-width="6"/>
    <circle cx="284" cy="130" r="14" fill="#22c55e" stroke="#111827" stroke-width="4"/>
  </g>
  <g transform="translate(346 254) rotate(-4)">
    <rect x="0" y="0" width="260" height="118" rx="16" fill="#ffffff" stroke="#111827" stroke-width="8"/>
    <text x="130" y="46" text-anchor="middle" font-family="Impact, Arial Black, sans-serif" font-size="34" fill="#111827">5 CORRECT</text>
    <text x="130" y="84" text-anchor="middle" font-family="Impact, Arial Black, sans-serif" font-size="26" fill="#ef4444">SHELF SNAP!</text>
  </g>
</svg>
