<svg xmlns="http://www.w3.org/2000/svg" viewBox="0 0 720 520" role="img" aria-labelledby="title desc">
  <title id="title">BlockWorks five correct selfie</title>
  <desc id="desc">A blocky avatar selfie celebration for five correct answers.</desc>
  <rect width="720" height="520" rx="0" fill="#1f2937"/>
  <rect x="24" y="24" width="672" height="472" rx="22" fill="#dbeafe"/>
  <path d="M24 376 L188 288 L310 336 L450 244 L696 358 L696 496 L24 496 Z" fill="#22c55e"/>
  <path d="M24 76 H696 V160 H24 Z" fill="#60a5fa"/>
  <g transform="translate(472 80) rotate(7)">
    <rect x="0" y="0" width="142" height="142" rx="16" fill="#f97316"/>
    <rect x="42" y="42" width="58" height="58" rx="8" fill="#fff7ed"/>
    <text x="71" y="126" text-anchor="middle" font-family="Arial Black, Impact, sans-serif" font-size="20" fill="#ffffff">XP</text>
  </g>
  <g transform="translate(90 96)">
    <rect x="112" y="94" width="148" height="168" rx="14" fill="#ef4444"/>
    <rect x="84" y="80" width="88" height="126" rx="13" fill="#facc15"/>
    <rect x="200" y="80" width="88" height="126" rx="13" fill="#facc15"/>
    <rect x="130" y="0" width="116" height="116" rx="16" fill="#facc15"/>
    <rect x="122" y="120" width="132" height="138" rx="10" fill="#2563eb"/>
    <rect x="120" y="268" width="54" height="112" rx="9" fill="#334155"/>
    <rect x="204" y="268" width="54" height="112" rx="9" fill="#334155"/>
    <circle cx="165" cy="48" r="8" fill="#111827"/>
    <circle cx="211" cy="48" r="8" fill="#111827"/>
    <path d="M160 76 Q188 94 216 76" fill="none" stroke="#111827" stroke-width="8" stroke-linecap="round"/>
  </g>
  <g transform="translate(346 254) rotate(-5)">
    <rect x="0" y="0" width="238" height="118" rx="18" fill="#ffffff" stroke="#111827" stroke-width="8"/>
    <text x="119" y="46" text-anchor="middle" font-family="Arial Black, Impact, sans-serif" font-size="34" fill="#111827">5 CORRECT</text>
    <text x="119" y="84" text-anchor="middle" font-family="Arial Black, Impact, sans-serif" font-size="26" fill="#ef4444">SELFIE!</text>
  </g>
  <g transform="translate(72 392)">
    <rect x="0" y="0" width="76" height="58" rx="8" fill="#ffffff" stroke="#111827" stroke-width="6"/>
    <circle cx="38" cy="29" r="14" fill="#60a5fa"/>
    <rect x="110" y="0" width="76" height="58" rx="8" fill="#ffffff" stroke="#111827" stroke-width="6"/>
    <text x="148" y="39" text-anchor="middle" font-family="Arial Black, Impact, sans-serif" font-size="22" fill="#111827">GG</text>
  </g>
</svg>
