<svg xmlns="http://www.w3.org/2000/svg" viewBox="0 0 720 520" role="img" aria-labelledby="title desc">
  <title id="title">BlockWorks checkpoint</title>
  <desc id="desc">A blocky obstacle course checkpoint with floating platforms.</desc>
  <rect width="720" height="520" fill="#bfdbfe"/>
  <path d="M0 390 C112 350 224 422 344 372 C474 318 582 392 720 346 V520 H0 Z" fill="#22c55e"/>
  <g fill="#ffffff" opacity="0.85">
    <rect x="64" y="74" width="118" height="44" rx="8"/>
    <rect x="500" y="112" width="146" height="46" rx="8"/>
    <rect x="294" y="54" width="98" height="38" rx="8"/>
  </g>
  <g transform="translate(104 234)">
    <rect x="0" y="0" width="124" height="54" rx="8" fill="#ef4444"/>
    <rect x="156" y="-48" width="124" height="54" rx="8" fill="#f97316"/>
    <rect x="312" y="-96" width="124" height="54" rx="8" fill="#facc15"/>
    <rect x="468" y="-144" width="124" height="54" rx="8" fill="#22c55e"/>
  </g>
  <g transform="translate(500 216)">
    <rect x="0" y="0" width="78" height="170" rx="8" fill="#111827"/>
    <rect x="14" y="20" width="50" height="50" rx="7" fill="#ffffff"/>
    <path d="M78 20 L160 50 L78 80 Z" fill="#ef4444"/>
  </g>
  <g transform="translate(124 342)">
    <rect x="0" y="0" width="210" height="76" rx="13" fill="#ffffff" stroke="#111827" stroke-width="7"/>
    <text x="105" y="31" text-anchor="middle" font-family="Arial Black, Impact, sans-serif" font-size="24" fill="#111827">CHECKPOINT</text>
    <text x="105" y="58" text-anchor="middle" font-family="Arial, sans-serif" font-size="18" font-weight="800" fill="#ef4444">spell streak saved</text>
  </g>
</svg>
