<svg xmlns="http://www.w3.org/2000/svg" viewBox="0 0 520 390" role="img" aria-labelledby="title desc">
  <title id="title">Coin block reward</title>
  <desc id="desc">Original coin block with coins popping upward.</desc>
  <rect width="520" height="390" rx="22" fill="#2563eb"/>
  <path d="M0 260c52-35 96-35 132 0 50-48 116-49 175 0 46-32 96-29 146 0 24-20 46-20 67 0v130H0z" fill="#4ade80"/>
  <g transform="translate(146 135)">
    <rect width="228" height="176" rx="18" fill="#facc15" stroke="#111827" stroke-width="12"/>
    <rect x="22" y="22" width="184" height="132" rx="12" fill="#fde047" stroke="#b45309" stroke-width="6"/>
    <path d="M113 49c-34 0-54 17-54 42 0 22 17 36 42 40V101c-8-3-14-8-14-17 0-11 10-18 25-18 17 0 27 10 27 24 0 16-17 27-38 27v43h36v-22c31-11 51-30 51-58 0-29-24-31-75-31z" fill="#78350f"/>
    <circle cx="37" cy="37" r="9" fill="#fff7ed"/>
    <circle cx="191" cy="37" r="9" fill="#fff7ed"/>
    <circle cx="37" cy="139" r="9" fill="#fff7ed"/>
    <circle cx="191" cy="139" r="9" fill="#fff7ed"/>
  </g>
  <g fill="#facc15" stroke="#111827" stroke-width="8">
    <ellipse cx="170" cy="78" rx="26" ry="38"/>
    <ellipse cx="260" cy="46" rx="26" ry="38"/>
    <ellipse cx="350" cy="78" rx="26" ry="38"/>
  </g>
  <path d="M172 52v52M262 20v52M352 52v52" stroke="#fff7ad" stroke-width="7" stroke-linecap="round"/>
</svg>
