<svg xmlns="http://www.w3.org/2000/svg" viewBox="0 0 720 520" role="img" aria-labelledby="title desc">
  <title id="title">Mario Course five correct selfie</title>
  <desc id="desc">A course hero celebration for five correct answers.</desc>
  <rect width="720" height="520" fill="#7dd3fc"/>
  <path d="M0 360c90-40 170-40 250 0 80-50 160-50 240 0 70-30 150-30 230 0v160H0z" fill="#22c55e"/>
  <g transform="translate(90 96)">
    <rect x="112" y="94" width="148" height="168" rx="14" fill="#ef4444"/>
    <rect x="84" y="80" width="88" height="126" rx="13" fill="#2563eb"/>
    <rect x="200" y="80" width="88" height="126" rx="13" fill="#2563eb"/>
    <rect x="130" y="0" width="116" height="116" rx="16" fill="#78350f"/>
    <rect x="122" y="120" width="132" height="138" rx="10" fill="#ef4444"/>
    <rect x="120" y="268" width="54" height="112" rx="9" fill="#1d4ed8"/>
    <rect x="204" y="268" width="54" height="112" rx="9" fill="#1d4ed8"/>
    <circle cx="165" cy="48" r="8" fill="#111827"/>
    <circle cx="211" cy="48" r="8" fill="#111827"/>
    <path d="M160 76 Q188 94 216 76" fill="none" stroke="#111827" stroke-width="8" stroke-linecap="round"/>
    <rect x="148" y="18" width="80" height="24" rx="6" fill="#ef4444"/>
  </g>
  <g transform="translate(346 254) rotate(-5)">
    <rect x="0" y="0" width="238" height="118" rx="18" fill="#ffffff" stroke="#111827" stroke-width="8"/>
    <text x="119" y="46" text-anchor="middle" font-family="Arial Black, Impact, sans-serif" font-size="34" fill="#111827">5 CORRECT</text>
    <text x="119" y="84" text-anchor="middle" font-family="Arial Black, Impact, sans-serif" font-size="26" fill="#ef4444">JUMP SHOT!</text>
  </g>
  <g transform="translate(472 80) rotate(7)">
    <rect x="0" y="0" width="142" height="142" rx="16" fill="#facc15" stroke="#78350f" stroke-width="8"/>
    <path d="M71 24 L86 58 L122 58 L92 78 L104 112 L71 92 L38 112 L50 78 L20 58 L56 58 Z" fill="#78350f"/>
  </g>
</svg>
