<svg xmlns="http://www.w3.org/2000/svg" viewBox="0 0 720 420" role="img" aria-labelledby="title desc">
  <title id="title">Platform course flag</title>
  <desc id="desc">Original platform-course scene with a flag, coins, hills, and pipes.</desc>
  <defs>
    <linearGradient id="sky" x1="0" x2="0" y1="0" y2="1">
      <stop offset="0" stop-color="#7dd3fc"/>
      <stop offset="1" stop-color="#dbeafe"/>
    </linearGradient>
    <linearGradient id="grass" x1="0" x2="0" y1="0" y2="1">
      <stop offset="0" stop-color="#22c55e"/>
      <stop offset="1" stop-color="#15803d"/>
    </linearGradient>
  </defs>
  <rect width="720" height="420" rx="24" fill="url(#sky)"/>
  <circle cx="112" cy="86" r="28" fill="#fff7ed"/>
  <circle cx="148" cy="82" r="36" fill="#fff7ed"/>
  <circle cx="190" cy="90" r="25" fill="#fff7ed"/>
  <circle cx="482" cy="70" r="24" fill="#fff7ed"/>
  <circle cx="515" cy="66" r="31" fill="#fff7ed"/>
  <circle cx="552" cy="75" r="22" fill="#fff7ed"/>
  <path d="M0 292c66-54 112-54 180 0 70-72 146-72 232 0 74-48 132-45 188 0 38-27 78-29 120 0v128H0z" fill="#86efac"/>
  <rect y="328" width="720" height="92" fill="url(#grass)"/>
  <path d="M0 328h720v18H0z" fill="#4ade80"/>
  <g transform="translate(76 236)">
    <rect x="0" y="34" width="105" height="70" rx="14" fill="#16a34a" stroke="#064e3b" stroke-width="8"/>
    <rect x="-18" width="141" height="48" rx="16" fill="#22c55e" stroke="#064e3b" stroke-width="8"/>
    <path d="M22 9h18v88H22zM72 9h18v88H72z" fill="#86efac" opacity=".55"/>
  </g>
  <g transform="translate(286 116)">
    <rect width="94" height="82" rx="10" fill="#facc15" stroke="#78350f" stroke-width="8"/>
    <circle cx="28" cy="25" r="8" fill="#fef3c7"/>
    <circle cx="66" cy="25" r="8" fill="#fef3c7"/>
    <path d="M48 37c-16 0-25 8-25 21 0 12 8 20 20 22v-15c-4-1-7-4-7-8 0-6 5-9 12-9 8 0 13 5 13 12 0 8-8 13-18 13v21h17V83c14-5 24-14 24-28 0-14-11-18-36-18z" fill="#7c2d12"/>
  </g>
  <g fill="#facc15" stroke="#b45309" stroke-width="6">
    <ellipse cx="225" cy="166" rx="19" ry="28"/>
    <ellipse cx="444" cy="152" rx="19" ry="28"/>
    <ellipse cx="506" cy="142" rx="19" ry="28"/>
  </g>
  <g transform="translate(574 88)">
    <rect x="24" y="16" width="14" height="246" rx="7" fill="#f8fafc" stroke="#111827" stroke-width="6"/>
    <path d="M38 24h112l-24 40 24 40H38z" fill="#ef4444" stroke="#111827" stroke-width="6" stroke-linejoin="round"/>
    <circle cx="31" cy="24" r="13" fill="#facc15" stroke="#111827" stroke-width="6"/>
  </g>
  <g transform="translate(412 264)">
    <rect x="0" y="28" width="132" height="56" rx="8" fill="#b45309" stroke="#7c2d12" stroke-width="6"/>
    <rect x="0" y="0" width="132" height="36" rx="8" fill="#f97316" stroke="#7c2d12" stroke-width="6"/>
    <path d="M16 14h100M22 56h88" stroke="#fed7aa" stroke-width="6" stroke-linecap="round"/>
  </g>
</svg>
