<svg xmlns="http://www.w3.org/2000/svg" viewBox="0 0 520 390" role="img" aria-labelledby="title desc">
  <title id="title">Pipe and hill checkpoint</title>
  <desc id="desc">Original green pipe and rounded hills for a platform course.</desc>
  <rect width="520" height="390" rx="22" fill="#bae6fd"/>
  <circle cx="124" cy="256" r="114" fill="#bbf7d0" stroke="#15803d" stroke-width="8"/>
  <circle cx="345" cy="264" r="136" fill="#86efac" stroke="#15803d" stroke-width="8"/>
  <circle cx="100" cy="220" r="12" fill="#16a34a"/>
  <circle cx="148" cy="220" r="12" fill="#16a34a"/>
  <circle cx="314" cy="219" r="12" fill="#16a34a"/>
  <circle cx="365" cy="218" r="12" fill="#16a34a"/>
  <rect y="300" width="520" height="90" fill="#22c55e"/>
  <path d="M0 300h520v18H0z" fill="#4ade80"/>
  <g transform="translate(168 124)">
    <rect x="16" y="82" width="168" height="128" rx="18" fill="#16a34a" stroke="#064e3b" stroke-width="12"/>
    <rect x="-16" y="26" width="232" height="74" rx="20" fill="#22c55e" stroke="#064e3b" stroke-width="12"/>
    <path d="M58 45v151M132 45v151" stroke="#86efac" stroke-width="18" stroke-linecap="round" opacity=".6"/>
  </g>
  <path d="M78 116c36-36 76-36 120 0M326 104c42-40 90-40 144 0" fill="none" stroke="#ffffff" stroke-width="18" stroke-linecap="round"/>
</svg>
