<?xml version="1.0" encoding="UTF-8" standalone="no"?>
<svg
   width="1200"
   height="800"
   version="1.1"
   viewBox="0 0 54 36"
   id="svg6"
   sodipodi:docname="Flag of the Automatons (Helldivers 2).svg"
   inkscape:version="1.3.2 (091e20e, 2023-11-25, custom)"
   xml:space="preserve"
   xmlns:inkscape="http://www.inkscape.org/namespaces/inkscape"
   xmlns:sodipodi="http://sodipodi.sourceforge.net/DTD/sodipodi-0.dtd"
   xmlns:xlink="http://www.w3.org/1999/xlink"
   xmlns="http://www.w3.org/2000/svg"
   xmlns:svg="http://www.w3.org/2000/svg"><defs
     id="defs6" /><sodipodi:namedview
     id="namedview6"
     pagecolor="#ffffff"
     bordercolor="#000000"
     borderopacity="0.25"
     inkscape:showpageshadow="2"
     inkscape:pageopacity="0.0"
     inkscape:pagecheckerboard="0"
     inkscape:deskcolor="#d1d1d1"
     inkscape:zoom="0.5"
     inkscape:cx="954"
     inkscape:cy="567"
     inkscape:window-width="1920"
     inkscape:window-height="1017"
     inkscape:window-x="-8"
     inkscape:window-y="-8"
     inkscape:window-maximized="1"
     inkscape:current-layer="svg6"
     showguides="false" /><rect
     y="3.328e-31"
     width="54"
     height="36"
     fill="#ba000a"
     stroke-width=".9594"
     id="rect1"
     inkscape:label="Rectangle1"
     style="fill:#8b0004;fill-opacity:1" /><g
     id="g8"
     inkscape:label="Automaton symbol"><g
       transform="matrix(7.9228531,0,0,7.9304456,27.038541,17.629405)"
       fill="#ba000a"
       id="g6"
       style="display:inline;fill:#000000;fill-opacity:1"
       inkscape:label="Star"><circle
         cx="27"
         cy="18.027"
         r="10.793"
         fill="#ffffff"
         stroke-width="1.6874"
         id="circle1"
         style="display:inline;fill:#ffffff;fill-opacity:1"
         inkscape:label="Circle"
         transform="matrix(0.10063068,0,0,0.10053434,-2.7105334,-1.7689563)" /><g
         id="a"
         style="fill:#000000;fill-opacity:1"><polygon
           id="b"
           transform="rotate(18,3.1569,-0.5)"
           points="0,1 0.5,1 0,0 "
           fill="#ba000a"
           style="fill:#000000;fill-opacity:1" /><use
           transform="scale(-1,1)"
           width="100%"
           height="100%"
           fill="#ba000a"
           xlink:href="#b"
           id="use1"
           style="fill:#000000;fill-opacity:1" /></g><g
         fill="#ba000a"
         id="g5"
         style="fill:#000000;fill-opacity:1"><use
           transform="rotate(72)"
           width="100%"
           height="100%"
           xlink:href="#a"
           id="use2"
           style="fill:#000000;fill-opacity:1" /><use
           transform="rotate(-72)"
           width="100%"
           height="100%"
           xlink:href="#a"
           id="use3"
           style="fill:#000000;fill-opacity:1" /><use
           transform="rotate(144)"
           width="100%"
           height="100%"
           xlink:href="#a"
           id="use4"
           style="fill:#000000;fill-opacity:1" /><use
           transform="rotate(-144)"
           width="100%"
           height="100%"
           xlink:href="#a"
           id="use5"
           style="fill:#000000;fill-opacity:1" /></g><g
         id="g7"
         inkscape:label="Rectangles"
         transform="matrix(0.10536365,0,0,0.10526277,-2.8448186,-1.9281011)"><rect
           style="fill:#ffffff;fill-opacity:1;stroke-width:0.237542"
           id="rect7"
           width="1.2323246"
           height="13.637476"
           x="-24.190786"
           y="19.232365"
           rx="0"
           inkscape:label="Rectangle 3"
           transform="matrix(-0.95114238,0.3087526,0.30875242,0.95114244,0,0)" /><rect
           style="fill:#ffffff;fill-opacity:1;stroke-width:0.237542"
           id="rect6"
           width="1.232325"
           height="13.637477"
           x="27.170689"
           y="2.5597885"
           rx="0"
           inkscape:label="Rectangle 2"
           transform="rotate(17.984067)" /><rect
           style="fill:#ffffff;fill-opacity:1;stroke-width:0.237542"
           id="rect5"
           width="1.232325"
           height="13.637477"
           x="26.383951"
           y="8.7808504"
           rx="0"
           inkscape:label="Rectangle 1" /></g><path
         style="color:#000000;display:inline;overflow:visible;visibility:visible;fill:#000000;fill-opacity:1;fill-rule:nonzero;stroke:none;stroke-width:2.49813;marker:none;enable-background:accumulate"
         d="m 25.492569,32.607646 c 0,-1.265866 -0.03214,-1.354766 -0.510557,-1.408943 -0.18161,-0.02061 -0.598688,-0.0978 -0.926883,-0.171574 l -0.596716,-0.134183 -0.160909,0.164598 c -0.09492,0.09709 -0.299181,0.503248 -0.498136,0.990659 -0.185493,0.454349 -0.357824,0.848857 -0.383043,0.876692 -0.0424,0.04687 -2.570697,-0.957988 -2.686874,-1.067861 -0.03015,-0.02857 0.09799,-0.414819 0.304413,-0.918325 0.231614,-0.564938 0.356359,-0.95011 0.356359,-1.100403 0,-0.226218 -0.0096,-0.237122 -0.448039,-0.503235 -0.246441,-0.14961 -0.597665,-0.387128 -0.780544,-0.527865 -0.33245,-0.255798 -0.332529,-0.255839 -0.540862,-0.168801 -0.114601,0.04791 -0.520993,0.393112 -0.903106,0.767141 L 17.02293,30.085631 15.984087,29.047998 14.94524,28.010361 15.660926,27.27634 c 0.490736,-0.503318 0.728083,-0.790478 0.755137,-0.913653 0.0345,-0.157105 -0.0064,-0.244378 -0.326936,-0.695876 -0.201513,-0.28395 -0.437495,-0.637407 -0.524406,-0.785493 -0.13395,-0.228199 -0.185335,-0.26924 -0.337284,-0.26924 -0.09857,0 -0.598122,0.170784 -1.110064,0.379549 -0.511946,0.208734 -0.936125,0.371824 -0.942627,0.362386 -0.02935,-0.04281 -1.069117,-2.577138 -1.085907,-2.647122 -0.01262,-0.05266 0.268886,-0.201396 0.848578,-0.448233 0.52674,-0.224313 0.933525,-0.435448 1.035618,-0.53754 l 0.168126,-0.168123 -0.117691,-0.514251 c -0.06473,-0.282842 -0.147706,-0.700041 -0.184383,-0.927115 -0.08926,-0.55262 -0.106232,-0.559889 -1.377793,-0.589772 l -1.000131,-0.02341 v -1.472759 -1.472762 h 0.988553 c 1.16132,0 1.303956,-0.04105 1.360613,-0.391529 0.01943,-0.119513 0.100439,-0.541134 0.180302,-0.936956 l 0.145168,-0.719675 -0.135576,-0.135579 c -0.07456,-0.07459 -0.536046,-0.303974 -1.025511,-0.509828 -0.489467,-0.205836 -0.897704,-0.382013 -0.907188,-0.39149 -0.03411,-0.0341 1.102097,-2.713001 1.150408,-2.713001 0.02696,0 0.425848,0.156549 0.886044,0.347871 0.576216,0.23958 0.913532,0.347869 1.083412,0.347869 0.245411,0 0.248107,-0.0023 0.521304,-0.44935 0.151038,-0.247147 0.382172,-0.598183 0.513665,-0.780104 0.196282,-0.271576 0.231771,-0.3597625 0.198462,-0.4928318 -0.02459,-0.097679 -0.326223,-0.4500081 -0.75952,-0.8868253 L 14.942383,8.1167422 15.997699,7.0596689 17.05301,6.0025975 17.779684,6.7216052 c 0.444172,0.4394786 0.790733,0.7350839 0.891451,0.7603579 0.136599,0.034108 0.220785,5.355e-4 0.49258,-0.1974294 0.180301,-0.1313309 0.530023,-0.3628184 0.777168,-0.5143973 0.444573,-0.2726897 0.449352,-0.2782011 0.449352,-0.5173842 0,-0.1644383 -0.111255,-0.5077522 -0.347793,-1.0732543 -0.191325,-0.4573154 -0.347836,-0.8587042 -0.347874,-0.8919768 -3.5e-5,-0.033307 0.515235,-0.2730063 1.145055,-0.5327491 0.629817,-0.2597227 1.24042,-0.5122844 1.356888,-0.5612114 l 0.211789,-0.08894 0.302548,0.7376606 c 0.59958,1.461752 0.522892,1.3980347 1.457063,1.2106892 0.393753,-0.078949 0.813667,-0.1601557 0.933173,-0.1804577 0.35057,-0.059479 0.391532,-0.2019893 0.391532,-1.3623439 V 2.521526 h 1.472782 1.472778 l 0.02341,1.000163 c 0.02733,1.1584396 0.06767,1.2991458 0.3882,1.3506185 0.114714,0.018239 0.532488,0.098854 0.92841,0.1787131 l 0.719841,0.1452068 0.167058,-0.1670551 c 0.101878,-0.101868 0.309608,-0.5049489 0.532369,-1.0329555 0.200922,-0.4762447 0.39399,-0.8598534 0.429003,-0.8524662 0.05698,0.011888 2.623384,1.0638766 2.668785,1.0938138 0.01049,0.00674 -0.14315,0.3996126 -0.340816,0.8730339 -0.197668,0.4734175 -0.372416,0.9707214 -0.38832,1.1051269 l -0.02895,0.2443774 0.360881,0.2194758 c 0.198459,0.1207052 0.554295,0.3584572 0.790706,0.5283394 0.585127,0.4204382 0.60275,0.4148194 1.527336,-0.4866496 l 0.734025,-0.7156769 1.037643,1.0388367 1.037646,1.0388353 -0.680094,0.6947327 c -0.374046,0.3820905 -0.71835,0.7863107 -0.765117,0.8982349 l -0.08503,0.2034932 0.362029,0.5169679 c 0.199139,0.284347 0.43316,0.637764 0.52007,0.785398 0.146993,0.249691 0.174552,0.268448 0.395023,0.268448 0.157342,0 0.529068,-0.11976 1.106183,-0.356358 0.497528,-0.203971 0.889402,-0.334148 0.916474,-0.304409 0.106737,0.117289 1.111559,2.649452 1.067207,2.689373 -0.02656,0.02381 -0.421432,0.196636 -0.877758,0.383994 -0.482333,0.198063 -0.897973,0.407485 -0.99281,0.500209 l -0.163132,0.159482 0.104959,0.449667 c 0.05773,0.247314 0.138112,0.664511 0.178596,0.927102 0.09961,0.6456 0.116259,0.653187 1.435423,0.653187 h 0.991411 v 1.473709 1.473717 l -1.000174,0.01941 c -1.337793,0.02576 -1.314125,0.01309 -1.441554,0.773029 -0.05345,0.318885 -0.137839,0.73446 -0.18748,0.923493 l -0.09027,0.343706 0.188866,0.178119 c 0.118876,0.11214 0.504549,0.307068 1.040725,0.526019 0.468513,0.191323 0.851894,0.365634 0.851962,0.387403 1.74e-4,0.04989 -1.080847,2.65524 -1.116464,2.690861 -0.01467,0.01425 -0.40187,-0.131533 -0.860895,-0.324476 -0.818195,-0.343865 -1.237335,-0.456236 -1.35997,-0.364563 -0.0337,0.02538 -0.162538,0.21559 -0.285974,0.422853 -0.123441,0.207262 -0.332529,0.520375 -0.464567,0.695768 -0.132052,0.175381 -0.258736,0.350606 -0.281498,0.389386 -0.08049,0.137003 0.193982,0.516741 0.828482,1.146109 0.353107,0.350252 0.64199,0.663611 0.64199,0.696388 0,0.07705 -1.982847,2.058674 -2.059915,2.058674 -0.03213,0 -0.34494,-0.288908 -0.695169,-0.641988 -0.629377,-0.634497 -1.009106,-0.908981 -1.146128,-0.828471 -0.03887,0.02262 -0.214005,0.149449 -0.389388,0.281532 -0.175382,0.132036 -0.488489,0.34109 -0.695776,0.464558 -0.207264,0.123442 -0.397565,0.252151 -0.422856,0.285973 -0.0921,0.123283 0.01903,0.543218 0.361472,1.363954 0.192358,0.461229 0.33055,0.854864 0.307034,0.874751 -0.05607,0.04747 -2.611733,1.098714 -2.671057,1.098714 -0.025,0 -0.210794,-0.405119 -0.41259,-0.90027 -0.259917,-0.637703 -0.414794,-0.94054 -0.531031,-1.038343 l -0.164082,-0.13807 -0.410721,0.105636 c -0.2259,0.0581 -0.633496,0.139812 -0.905769,0.181607 -0.676454,0.103774 -0.681073,0.113095 -0.706658,1.427068 l -0.01941,1.000165 h -1.473673 -1.47373 v -0.991579 z m 3.296446,-4.017772 c 2.256715,-0.418424 4.202148,-1.44556 5.791302,-3.05765 2.097865,-2.128137 3.168323,-4.85555 3.069152,-7.819821 -0.06609,-1.975494 -0.558248,-3.604291 -1.602643,-5.303991 C 35.22404,11.069367 33.966466,9.8232127 32.550039,8.9433627 28.360913,6.3411891 22.887233,7.0137564 19.391282,10.560215 c -4.134004,4.193731 -4.116119,10.854121 0.04027,15.010504 1.69324,1.693221 3.749621,2.725971 6.118965,3.073055 0.70571,0.10337 2.556329,0.07256 3.238463,-0.05389 z"
         id="path4335"
         inkscape:connector-curvature="0"
         inkscape:label="Cog"
         transform="matrix(0.10063068,0,0,0.10053434,-2.7105334,-1.7689563)" /></g></g></svg>
